<svg t="1723449031856" class="icon" viewBox="0 0 1024 1024" version="1.1" xmlns="http://www.w3.org/2000/svg" p-id="4353" width="200" height="200"><path d="M978.286 320H960V182.857a45.714 45.714 0 0 0-45.714-45.714H507.758l-31.452-44.764a45.787 45.787 0 0 0-37.449-19.456H45.714A45.714 45.714 0 0 0 0 118.638v786.285c0 25.235 20.48 45.715 45.714 45.715h932.572c25.234 0 45.714-20.48 45.714-45.715V365.714A45.714 45.714 0 0 0 978.286 320zM868.57 228.571V320H636.27l-64.293-91.429h296.594z m64 630.638H91.43V164.352h323.657l160.036 227.62a45.641 45.641 0 0 0 37.376 19.457h320v447.78z" fill="currentColor" p-id="4354"></path><path d="M476.599 632.54H184.027a45.714 45.714 0 0 0 0 91.428H476.6a45.714 45.714 0 0 0 0-91.429z m-14.044-242.615l-86.454 86.454-116.81-58.44a45.787 45.787 0 0 0-52.736 8.557l-73.142 73.143a45.714 45.714 0 0 0 64.658 64.658l49.883-49.883 116.81 58.44a45.495 45.495 0 0 0 52.735-8.557l109.715-109.714a45.714 45.714 0 0 0-64.659-64.658z" fill="currentColor" p-id="4355"></path></svg>