<?xml version="1.0" standalone="no"?><!DOCTYPE svg PUBLIC "-//W3C//DTD SVG 1.1//EN" "http://www.w3.org/Graphics/SVG/1.1/DTD/svg11.dtd"><svg t="1725261416210" class="icon" viewBox="0 0 1155 1024" version="1.1" xmlns="http://www.w3.org/2000/svg" p-id="3313" width="36.09375" height="32" xmlns:xlink="http://www.w3.org/1999/xlink"><path d="M1148.390456 984.017354L1043.991323 879.618221c39.982646-46.646421 62.195228-106.62039 62.195228-168.815618 2.221258-148.824295-115.505423-270.993492-264.329718-275.436009-148.824295-2.221258-273.214751 115.505423-275.436009 264.329718-2.221258 148.824295 115.505423 273.214751 264.329718 275.436009h6.663775c62.195228 0 124.390456-22.212581 173.258134-62.195228l104.399133 102.177874c8.885033 8.885033 24.433839 8.885033 33.318872 0 8.885033-6.663774 8.885033-22.212581 0-31.097613z m-310.976139-55.531454c-119.947939-2.221258-213.240781-102.177874-211.019523-219.904555 2.221258-119.947939 102.177874-213.240781 219.904555-211.019523 117.726681 2.221258 211.019523 97.735358 211.019523 215.462039-2.221258 119.947939-99.956616 215.462039-219.904555 215.462039zM533.101952 666.37744c-4.442516 13.327549-6.663774 28.876356-6.663774 44.425163H219.904555c-17.770065 0-31.097614-4.442516-31.097614-19.991323V688.590022c2.221258-13.327549 15.548807-24.433839 31.097614-19.991324H533.101952zM644.164859 470.906725c-53.310195 22.212581-48.867679 15.548807-66.637744 39.982646H222.125813c-17.770065 0-31.097614 0-31.097613-17.770065s13.327549-22.212581 31.097613-22.212581h422.039046z" p-id="3314"></path><path d="M861.848156 273.214751c-2.221258-6.663774-4.442516-11.106291-8.885032-13.327549L568.642082 2.221258 126.611714 0C57.752711 0 0 33.318872 0 102.177874v737.457701c0 66.637744 55.531453 115.505423 126.611714 115.505423H621.952278c-19.991323-11.106291-35.54013-26.655098-51.088937-44.425163h-444.251627C91.071584 910.715835 44.425163 872.954447 44.425163 839.635575V102.177874c0-33.318872 46.646421-62.195228 82.186551-62.195228H510.889371v122.169198c0 102.177874 77.744035 162.151844 182.143167 162.151844l128.832972 6.663774v79.965293h22.212581c6.663774 0 11.106291 0 17.770065 2.221258v-126.611714-13.327548z m-48.867679 15.548806H688.590022c-71.08026 0-131.05423-46.646421-131.05423-113.284164V51.088937l259.887201 235.453362-4.442516 2.221258zM568.642082 2.221258zM568.642082 2.221258z"  p-id="3315"></path><path d="M444.251627 326.524946c0 4.442516 0 6.663774-2.221258 8.885032l-6.663775 6.663775c-2.221258 0-4.442516 2.221258-4.442516 2.221258-4.442516 0-6.663774 2.221258-11.106291 2.221258H215.462039c-15.548807 0-24.433839-4.442516-24.433839-17.770065-2.221258-13.327549 8.885033-17.770065 24.433839-17.770065h195.470716c17.770065 0 33.318872 0 33.318872 15.548807z"  p-id="3316"></path></svg>