<svg t="1723445909260" class="icon" viewBox="0 0 1024 1024" version="1.1" xmlns="http://www.w3.org/2000/svg" p-id="7369" width="200" height="200"><path d="M248.91 199.71c-44 0-79.91 35.75-79.91 79.91v481.9c0 44 35.91 79.75 79.91 79.75h482.22c44 0 79.75-35.75 79.75-79.75V444.94l82.66-79.91v426.09c0 73.6-62.28 133.13-135.88 133.13H219.63c-73.6-0.16-133.13-59.69-133.13-133.29V258.59c0-73.6 59.53-141.38 133.13-141.38h426.09l-79.75 82.5H248.91z m295.06 391.63l-178.75 50.63 51.12-177.62 127.63 126.99z m17.79-17.95L433.81 446.72l281.15-279.21 127.95 126.66-281.15 279.22zM900.5 237.08l-38.34 38.01L734.2 148.11l38.34-38.02c14.24-13.91 36.4-14.72 49.5-1.62l79.91 79.27c13.27 13.1 12.62 35.26-1.45 49.34z m0 0" p-id="7370" fill="currentColor"></path></svg>