<?xml version="1.0" standalone="no"?><!DOCTYPE svg PUBLIC "-//W3C//DTD SVG 1.1//EN" "http://www.w3.org/Graphics/SVG/1.1/DTD/svg11.dtd"><svg t="1723431201398" class="icon" viewBox="0 0 1024 1024" version="1.1" xmlns="http://www.w3.org/2000/svg" p-id="6125" xmlns:xlink="http://www.w3.org/1999/xlink" width="200" height="200"><path d="M410.716393 414.951801c-19.118036 12.94845-52.828038 36.792235-74.925908 52.515719-8.6323 6.062066-6.266866 19.322836 3.906551 22.200269 49.848205 13.977568 89.415474 30.52537 113.15686 44.810137 20.659152 12.538851 44.400538 18.805717 68.551522 18.498517h0.1024a129.699542 129.699542 0 0 0 59.094904-14.801886c31.242168-16.445402 84.587325-39.772069 122.096359-49.848205 10.071017-2.672634 12.641251-15.723484 4.31615-21.995469-23.536586-17.884119-47.175571-36.587436-69.785439-53.032838 123.535076-115.522294 138.848961-252.415419 42.239903-350.258395-84.986685-86.015802-233.911782-83.655488-317.26007 4.940789-94.351143 100.408089-76.057425 233.916902 48.506768 346.971362z" p-id="6126"></path><path d="M911.338602 643.113836h-13.25565c-0.926718-50.257804-0.824318-96.199459-0.307199-125.490911a22.328269 22.328269 0 0 0-22.405069-22.712268c-99.281692 0.2048-232.887784 50.155405-291.783009 74.306389a171.181686 171.181686 0 0 1-64.84977 12.743651 170.941047 170.941047 0 0 1-68.858722-14.801886c-55.085953-24.668103-173.588081-71.428956-277.697921-71.121757a22.358989 22.358989 0 0 0-22.302669 23.434186c1.438717 28.677054 2.160635 73.89679 1.745916 123.637476H132.506473c-16.343002 0-29.701052 13.25565-29.701052 29.496252v61.562739c0 16.343002 13.26077 29.496252 29.701052 29.496252h15.723484c-2.365435 47.585171-6.164466 90.444592-11.509734 117.47301-2.570234 12.641251 6.164466 24.770503 18.913237 26.516419 107.504393 14.801886 239.774169 73.79439 297.845075 101.647126A149.949095 149.949095 0 0 0 518.225906 1024h0.204799c21.375951 0 42.547102-4.623349 61.972338-13.465569 60.124022-27.340737 202.777134-88.181557 317.37271-105.650957 12.84605-1.950716 21.375951-14.489567 18.396117-27.130818-6.266866-26.618819-10.588136-68.039524-13.465569-114.185977h8.7347c16.343002 0 29.598652-13.25565 29.598652-29.496252v-61.562739c-0.1024-16.138203-13.358049-29.393852-29.701051-29.393852z" p-id="6127"></path></svg>