<?xml version="1.0" standalone="no"?><!DOCTYPE svg PUBLIC "-//W3C//DTD SVG 1.1//EN" "http://www.w3.org/Graphics/SVG/1.1/DTD/svg11.dtd"><svg t="1723431227303" class="icon" viewBox="0 0 1024 1024" version="1.1" xmlns="http://www.w3.org/2000/svg" p-id="6275" xmlns:xlink="http://www.w3.org/1999/xlink" width="200" height="200"><path d="M892.032 64H131.968a128 128 0 0 0-128 128v640a128 128 0 0 0 128 128h760.064a128 128 0 0 0 128-128V192a128 128 0 0 0-128-128zM960 791.552c0 52.992-43.008 102.4-96 102.4H163.904c-53.056 0-99.968-49.408-99.968-102.4V227.52c0-52.992 46.912-102.4 99.968-102.4h699.968c52.992 0 96.064 49.408 96.064 102.4v564.032z" fill="" p-id="6276"></path><path d="M832 356.352H458.368a32 32 0 1 0 0 64H832a32 32 0 1 0 0-64zM832 604.352H458.368a32 32 0 1 0 0 64H832a32 32 0 1 0 0-64zM349.824 297.6L243.392 404.864l-57.856-49.28a28.288 28.288 0 1 0-36.672 42.944l76.672 65.408a27.968 27.968 0 0 0 21.376 6.4 28.928 28.928 0 0 0 22.4-8.32l122.112-122.944a29.312 29.312 0 1 0-41.6-41.344zM252.288 579.328a71.36 71.36 0 1 0 0 142.72 71.36 71.36 0 0 0 0-142.72z m0 93.184a21.888 21.888 0 1 1 0-43.712 21.888 21.888 0 0 1 0 43.712z" fill="" p-id="6277"></path></svg>