<svg t="1723445108231" class="icon" viewBox="0 0 1030 1024" version="1.1" xmlns="http://www.w3.org/2000/svg" p-id="5458" width="200" height="200"><path d="M485.685696 9.688311a42.664747 42.664747 0 0 1 49.576436-3.199856l4.437134 3.199856 469.312214 383.98272c42.664747 34.942428-6.826359 98.128918-50.003083 69.031561l-4.010486-2.986533L512.692481 97.791013 70.387051 459.716059c-42.664747 34.942428-94.801067-26.110825-57.768067-62.717177l3.754498-3.327851 469.312214-383.98272z"  p-id="5459"></path><path d="M128.70976 320.884974a42.664747 42.664747 0 0 1 42.366094 37.672971L171.374507 363.54972v575.078122l298.951881 0.042664a42.664747 42.664747 0 0 1 42.366093 37.672972l0.298653 4.991775a42.664747 42.664747 0 0 1-37.672971 42.366094l-4.991775 0.298653H150.042134c-34.003803 0-60.839929-26.665467-63.741132-59.559986L86.045014 958.552278V363.54972a42.664747 42.664747 0 0 1 42.664746-42.664746z m767.965442 22.398992a42.664747 42.664747 0 0 1 42.366093 37.715636l0.298654 4.94911v85.329494a42.664747 42.664747 0 0 1-85.030841 4.991775L854.010455 471.278206v-85.329494a42.664747 42.664747 0 0 1 42.664747-42.664746z"  p-id="5460"></path><path d="M256.704001 597.352532m42.664746 0l170.658987 0q42.664747 0 42.664747 42.664747l0 0q0 42.664747-42.664747 42.664747l-170.658987 0q-42.664747 0-42.664746-42.664747l0 0q0-42.664747 42.664746-42.664747Z"  p-id="5461"></path><path d="M256.704001 426.693545m42.664746 0l170.658987 0q42.664747 0 42.664747 42.664747l0 0q0 42.664747-42.664747 42.664747l-170.658987 0q-42.664747 0-42.664746-42.664747l0 0q0-42.664747 42.664746-42.664747Z"  p-id="5462"></path><path d="M256.704001 768.011519m42.664746 0l85.329494 0q42.664747 0 42.664747 42.664747l0 0q0 42.664747-42.664747 42.664747l-85.329494 0q-42.664747 0-42.664746-42.664747l0 0q0-42.664747 42.664746-42.664747Z"  p-id="5463"></path><path d="M790.013335 810.676266m-63.99712 0a63.99712 63.99712 0 1 0 127.99424 0 63.99712 63.99712 0 1 0-127.99424 0Z"  p-id="5464"></path><path d="M910.967892 597.352532h-241.909114l-119.973268 213.323734 119.973268 213.323734h241.909114l119.973268-213.323734-119.973268-213.323734z m-49.917754 85.329494l71.975428 127.99424-72.018092 127.99424H718.976532L646.958439 810.676266l71.975428-127.99424h142.116271z"  p-id="5465"></path></svg>