<svg t="1723445493519" class="icon" viewBox="0 0 1024 1024" version="1.1" xmlns="http://www.w3.org/2000/svg" p-id="6786" width="200" height="200"><path d="M931.84 76.8a40.96 40.96 0 0 1 40.96 40.96v783.36a40.96 40.96 0 0 1-40.96 40.96H92.16a40.96 40.96 0 0 1-40.96-40.96V117.76A40.96 40.96 0 0 1 92.16 76.8h839.68z m0 30.72H92.16a10.24 10.24 0 0 0-10.214 9.472l-0.026 0.768v783.36a10.24 10.24 0 0 0 9.472 10.214l0.768 0.026h839.68a10.24 10.24 0 0 0 10.214-9.472l0.026-0.768V117.76a10.24 10.24 0 0 0-9.472-10.214l-0.768-0.026z" p-id="6787" ></path><path d="M250.88 629.76h61.44v158.72h-61.44z m102.4-81.92h61.44v240.64h-61.44z m102.4 46.08h61.44v194.56h-61.44zM558.08 512h61.44v276.48h-61.44z m102.4 153.6h61.44v122.88h-61.44z m102.4-71.68h61.44v194.56h-61.44zM476.16 332.8c0.348-90.476-75.203-158.423-158.72-158.72V332.8h158.72z"  p-id="6788"></path><path d="M296.96 185.103v30.925c-57.774 7.532-102.4 56.945-102.4 116.772 0 65.04 52.72 117.76 117.76 117.76 58.05 0 106.291-42.004 115.983-97.28h31.094c-9.974 72.31-72.018 128-147.077 128-82.002 0-148.48-66.478-148.48-148.48 0-76.815 58.337-140.012 133.12-147.697zM179.2 592.358v222.1h672.512v30.72H148.48v-252.82zM849.92 184.32V307.2H588.8V184.32h261.12z m-30.72 30.72H619.52v61.44H819.2v-61.44z m30.72 117.76v122.88H588.8V332.8h261.12z m-30.72 30.72H619.52v61.44H819.2v-61.44z" p-id="6789" ></path></svg>