<?xml version="1.0" standalone="no"?><!DOCTYPE svg PUBLIC "-//W3C//DTD SVG 1.1//EN" "http://www.w3.org/Graphics/SVG/1.1/DTD/svg11.dtd"><svg t="1724981250635" class="icon" viewBox="0 0 1024 1024" version="1.1" xmlns="http://www.w3.org/2000/svg" p-id="8719" xmlns:xlink="http://www.w3.org/1999/xlink" width="200" height="200"><path d="M428.836929 387.15562c105.099686 0 214.334553-23.113417 279.922341-67.1207l0 80.20674 60.763922 0L769.523191 224.546126c0-105.625666-175.532829-162.619728-340.687286-162.619728S88.155782 118.92046 88.155782 224.546126l0 479.326856c0 105.620549 175.527712 162.609495 340.682169 162.609495l0-60.758806c-173.429935 0-279.917224-59.32413-279.917224-101.850689L148.920728 559.704488c65.593927 44.007283 174.822654 67.121723 279.917224 67.121723l0-60.763922c-173.429935 0-279.917224-59.32413-279.917224-101.855806L148.920728 320.040037C214.502375 364.04118 323.732126 387.15562 428.836929 387.15562L428.836929 387.15562zM428.836929 122.69032c173.436074 0 279.922341 59.325154 279.922341 101.855806 0 42.526559-106.48729 101.844549-279.922341 101.844549-173.429935 0-279.917224-59.31799-279.917224-101.844549C148.919704 182.015474 255.406994 122.69032 428.836929 122.69032L428.836929 122.69032zM428.836929 122.69032M701.167361 420.367023c-150.854776 0-229.788523 58.036811-229.788523 115.359354l0 308.018236c0 57.32152 78.933747 115.352191 229.788523 115.352191 149.72607 0 228.556463-57.170071 229.725078-114.075105l0.057305 0L930.949744 535.720238C930.948721 478.397694 852.02623 420.367023 701.167361 420.367023L701.167361 420.367023zM701.167361 481.130945c111.51377 0 169.017438 38.264489 169.017438 54.594409 0 16.334014-57.503669 54.598502-169.017438 54.598502-111.520933 0-169.024601-38.264489-169.024601-54.598502C532.142759 519.395434 589.657684 481.130945 701.167361 481.130945L701.167361 481.130945zM701.167361 898.321626c-111.520933 0-169.024601-38.266535-169.024601-54.594409l0-73.53069c38.557154 20.938891 95.14394 34.880415 169.024601 34.880415s130.460284-13.941524 169.017438-34.880415l0 73.53069C870.184799 860.056114 812.68113 898.321626 701.167361 898.321626L701.167361 898.321626zM701.167361 744.318136c-111.520933 0-169.024601-38.264489-169.024601-54.594409l0-73.53069c38.557154 20.939915 95.14394 34.885532 169.024601 34.885532s130.460284-13.936407 169.017438-34.875299l0 73.53069C870.184799 706.052624 812.68113 744.318136 701.167361 744.318136L701.167361 744.318136zM701.167361 744.318136" fill="" p-id="8720"></path></svg>