<?xml version="1.0" standalone="no"?>
<!DOCTYPE svg PUBLIC "-//W3C//DTD SVG 1.1//EN" "http://www.w3.org/Graphics/SVG/1.1/DTD/svg11.dtd">
<svg t="1723430163177" class="icon" viewBox="0 0 1024 1024" version="1.1"
    xmlns="http://www.w3.org/2000/svg" p-id="3819" xmlns:xlink="http://www.w3.org/1999/xlink"
    width="200" height="200">
    <path
        d="M640 640h128v128.064h-128zM832 640h128v128.064h-128zM640 832.064h128v128h-128zM832 832.064h128v128h-128z"
        fill="currentColor" p-id="3820"></path>
    <path
        d="M634.24 523.52c67.84-45.44 112-120.96 112-206.08 0-139.52-118.464-252.8-264.96-252.8-146.56 0-265.6 113.28-265.6 252.8 0 83.84 43.52 158.72 110.08 204.8-149.76 37.76-260.48 167.68-260.48 321.92v49.856h64.64v-51.84c0-151.04 128.64-273.28 286.72-273.28h128c74.24 0 140.8 26.816 191.36 71.04h81.92A365.952 365.952 0 0 0 634.24 523.52z m-152.96-14.08c-111.36 0-201.6-86.4-201.6-192 0-106.24 90.24-192 201.6-192s201.6 85.76 201.6 192c0 105.6-90.24 192-201.6 192z"
        p-id="3821"></path>
    <path d="M66.688 893.312H576V960H66.688z" p-id="3822"></path>
</svg>