<svg t="1723448467138" class="icon" viewBox="0 0 1024 1024" version="1.1" xmlns="http://www.w3.org/2000/svg" p-id="3238" width="200" height="200"><path d="M893.44 166.4h-768c-35.226 0-64 28.774-64 64v563.2c0 35.174 28.774 64 64 64h768c35.174 0 64-28.826 64-64V230.4c0-35.226-28.826-64-64-64z m0 595.2c0 19.2-12.8 32-32.051 32h-704c-19.2 0-32-12.8-32-32V262.4c0-19.2 12.8-32 32-32h704c19.2 0 32 12.8 32 32v499.2zM390.963 433.254h64v204.8h54.375v-204.8h64V385.28H391.014v47.974z m355.175 96v-140.8h51.2v256h-25.6l-83.2-108.8c-9.575-9.574-15.975-19.2-22.375-28.774l-19.2-28.826v160h-51.2V385.28h41.575l73.676 96c6.4 6.4 12.8 12.8 19.2 22.374 6.4 9.626 9.575 19.2 15.975 25.6z m-393.575-25.6c6.4 6.4 9.575 9.626 12.8 16.026 3.175 3.226 3.175 9.574 6.4 15.974 3.175 6.452 3.175 16.026 3.175 22.426 0 12.8-3.175 22.426-6.4 32a69.632 69.632 0 0 1-15.975 25.6c-6.4 6.4-12.8 12.8-22.425 15.974-9.575 3.226-19.2 6.452-28.775 6.452H221.39V385.28h73.625c6.4 0 15.975 0 22.375 3.226 6.4 3.174 12.8 6.4 19.2 12.8 3.225 6.4 9.625 12.8 12.8 22.374 3.225 9.574 6.4 19.2 6.4 28.826v12.8c0 6.348-3.175 9.574-3.175 12.8-3.225 3.174-3.225 6.348-6.4 9.574 0 3.174-3.225 3.174-6.4 6.4 3.175 3.174 9.575 6.4 12.8 9.574zM285.39 430.08h-15.975v51.2h15.975c6.4 0 12.8 0 16.025-6.4 3.175-3.226 6.4-9.626 6.4-19.2 0-9.626 0-16.026-6.4-19.2a24.422 24.422 0 0 0-16.025-6.4z m32 153.6c3.225-3.174 3.225-6.4 6.4-9.574q0-3.226 3.225-9.626c0-12.8-3.225-19.2-9.625-25.6a29.03 29.03 0 0 0-22.375-9.574h-25.6v64h25.6c6.4 0 9.575-3.226 12.8-3.226 3.175-3.174 6.4-3.174 9.575-6.4z" p-id="3239" fill="currentcolor"></path></svg>