<?xml version="1.0" standalone="no"?><!DOCTYPE svg PUBLIC "-//W3C//DTD SVG 1.1//EN" "http://www.w3.org/Graphics/SVG/1.1/DTD/svg11.dtd"><svg t="1724032916301" class="icon" viewBox="0 0 1024 1024" version="1.1" xmlns="http://www.w3.org/2000/svg" p-id="7535" xmlns:xlink="http://www.w3.org/1999/xlink" width="200" height="200"><path d="M819.182933 955.716267a34.1504 34.1504 0 0 1 0 68.283733H204.8a34.1504 34.1504 0 0 1 0-68.283733H819.2z m34.133334-955.716267C947.5072 0 1024 71.406933 1024 159.232v568.951467c-0.136533 87.842133-76.629333 159.232-170.683733 159.232H170.666667C76.6464 887.432533 0 816.042667 0 728.200533V159.249067C0 71.406933 76.629333 0 170.683733 0H853.333333z m0 68.283733H170.666667c-56.507733 0-102.4 40.789333-102.4 90.965334v568.9344c0 50.158933 45.892267 90.965333 102.4 90.965333h682.615466c56.5248 0 102.417067-40.8064 102.417067-90.965333V159.249067C955.733333 109.090133 909.824 68.266667 853.333333 68.266667zM365.704533 324.266667c59.2384 0 95.453867 27.716267 168.311467 108.202666l13.704533 15.172267c54.903467 60.2624 81.237333 80.008533 110.5408 80.008533 49.4592 0 87.381333-19.165867 117.0432-59.170133a36.3008 36.3008 0 0 1 51.2-7.389867 37.256533 37.256533 0 0 1 7.304534 51.7632c-43.485867 58.606933-103.082667 88.746667-175.547734 88.746667-59.2384 0-95.453867-27.716267-168.311466-108.202667l-13.704534-15.172266c-54.903467-60.2624-81.237333-80.008533-110.5408-80.008534-57.1392 0-92.091733 26.555733-111.581866 85.640534a36.488533 36.488533 0 0 1-46.267734 23.415466 37.085867 37.085867 0 0 1-23.1424-46.779733C213.981867 371.677867 276.514133 324.266667 365.7216 324.266667z" p-id="7536"></path></svg>