<svg t="1723445447337" class="icon" viewBox="0 0 1024 1024" version="1.1" xmlns="http://www.w3.org/2000/svg" p-id="6553" width="200" height="200"><path d="M508.438 518.203c-60.537 0-117.445-23.571-160.242-66.374-42.792-42.797-66.358-99.701-66.358-160.229s23.566-117.431 66.358-160.228C390.991 88.572 447.899 65 508.438 65c60.523 0 117.427 23.572 160.229 66.373s66.373 99.705 66.373 160.229-23.571 117.428-66.373 160.229c-42.804 42.801-99.706 66.372-160.229 66.372z m0-423.203c-108.406 0-196.601 88.195-196.601 196.602s88.194 196.603 196.601 196.603S705.04 400.009 705.04 291.602C705.038 183.195 616.844 95 508.438 95zM926.828 958.894H479.169V663.108l447.659 0.001v295.785z m-417.659-30h387.659V693.109l-387.659-0.001v235.786z" fill="currentColor" p-id="6554"></path><path d="M567 758.803h268v31H567zM567 839.803h268v30H567z" fill="currentColor" p-id="6555"></path><path d="M128 959H98c0-111.261 44.068-225.075 120.904-312.261 38.504-43.69 82.813-78.221 131.697-102.632C402.566 518.158 457.206 505 513 505c140.009 0 258.916 60.584 334.816 170.592l-24.693 17.037C752.99 590.98 642.853 535 513 535c-201.496 0-385 202.094-385 424z" fill="currentColor" p-id="6556"></path></svg>