<svg t="1723444924872" class="icon" viewBox="0 0 1024 1024" version="1.1" xmlns="http://www.w3.org/2000/svg" p-id="4912" width="200" height="200"><path d="M216.57 201.63c22.75-9.56 48.46 16.06 39.09 38.8-6.21 20.74-35.94 27.72-50.46 11.37-16.06-14.24-9.09-43.67 11.37-50.17z m104.94 0c22.75-9.37 48.46 16.25 39.09 38.8-6.21 20.74-35.94 27.91-50.46 11.56-16.35-14.62-9.18-44.06 11.37-50.36z m191.43 0.47c74.74-5.16 150.15-0.48 224.98-2.2 18.73 1.53 44.44-4.87 56.01 14.72 12.04 17.39-0.67 45.49-22.56 45.78-75.41 2.2-151.1 0-226.7 1.15-14.53-1.15-32.11 2.48-43.1-9.56-15.2-14.91-8.89-43.67 11.37-49.89zM216.57 463.4c22.75-9.37 48.46 16.25 38.8 39.09-6.21 20.74-35.94 27.72-50.46 11.37-15.77-14.52-8.8-43.96 11.66-50.46z m104.94 0c22.75-9.37 48.46 16.25 39.09 39.09-6.21 20.74-35.94 27.72-50.46 11.56-16.35-14.71-9.37-44.15 11.37-50.65zM216.57 716.48c22.75-9.37 48.46 16.25 39.09 39.09-6.21 20.74-35.94 27.72-50.46 11.37-16.06-14.52-9.09-43.77 11.37-50.46z m104.94 0c22.75-9.37 48.46 16.25 38.8 39.09-6.21 20.74-35.94 27.72-50.46 11.56-16.06-14.52-8.89-43.96 11.66-50.65z" " p-id="4913"></path><path d="M487.23 850c-120.14 0-240.37 0.19-360.5 0.57 1.34-66.9 0.48-134.09 0.48-200.8 112.01 0.29 224.02 0.38 336.04 0.38 4.49-21.79 11.37-42.72 20.17-62.6-118.7 0-237.41 0-356.11 0.38 0.19-66.9 0.86-133.9-0.48-200.8 247.06 0.86 494.31 0.67 741.56 0.19-0.1 9.65-0.19 19.21-0.29 28.86 18.16 5.93 35.65 13.48 52.18 22.56 0-102.93 0.1-205.87 0.57-308.89-0.48-20.07 1.53-45.49-17.39-58.2-10.51-8.89-25.9-5.54-38.61-6.88-244.38 0.48-489.15 0.48-733.72 0-12.9 1.53-28.77-2.87-39.47 6.21-14.53 9.18-18.06 25.42-16.92 41.48 0.48 250.59 0.19 501 0.19 751.4-4.01 27.24 20.26 51.32 47.31 47.31h403.7c-15.29-18.83-28.2-39.29-38.71-61.17zM868 117.52c-0.67 68.91-0.19 137.91-0.48 206.82-246.77 0.29-493.54-0.19-740.22 0.29 0-69.2 0.19-138.1-0.19-207.3 246.87 0.67 493.83 0.19 740.89 0.19z" " p-id="4914"></path><path d="M747.28 479.06c-121.2 0-185.09 33.59-185.09 50.5 0 16.91 63.89 50.5 185.09 50.5s185.09-33.59 185.09-50.5c0-16.91-64.01-50.5-185.09-50.5z m185.09 165.02v-68.12c-40.99 24.66-113.8 37.93-185.09 37.93s-144.11-13.27-185.09-37.93v68.12c0 16.79 63.89 50.5 185.09 50.5s185.09-33.71 185.09-50.5z m0 114.39v-68.12c-40.99 24.55-113.8 37.82-185.09 37.82s-144.11-13.27-185.09-37.82v68.12c0 16.79 64.01 50.5 185.09 50.5s185.09-33.71 185.09-50.5z m0 107.69v-61.42c-40.99 24.66-113.8 37.93-185.09 37.93s-144.11-13.39-185.09-37.93v61.42c0 16.79 64.01 50.5 185.09 50.5s185.09-33.7 185.09-50.5z m33.59 0c0 53.79-111.1 84.09-218.8 84.09s-218.8-30.3-218.8-84.09V522.87h0.59c16.91-102.06 419.51-102.06 436.43 0h0.59l-0.01 343.29z" " p-id="4915"></path></svg>