<?xml version="1.0" standalone="no"?><!DOCTYPE svg PUBLIC "-//W3C//DTD SVG 1.1//EN" "http://www.w3.org/Graphics/SVG/1.1/DTD/svg11.dtd"><svg t="1723430298770" class="icon" viewBox="0 0 1024 1024" version="1.1" xmlns="http://www.w3.org/2000/svg" p-id="4751" xmlns:xlink="http://www.w3.org/1999/xlink" width="200" height="200"><path d="M775.6 302.8c-66.2 0-124.2 35.5-156.1 88.4l-150.7-65.5c8.3-21.5 12.9-44.9 12.9-69.3 0-105.9-86.1-192-192-192s-192 86.1-192 192c0 105 84.8 190.6 189.5 192 0 1.4 0.1 2.8 0.3 4.3l21.7 152.7c0.1 0.6 0.2 1.1 0.3 1.7C241.4 633.4 193 699.6 193 776.9c0 100.4 81.6 182 182 182s182-81.6 182-182-81.6-182-182-182h-2.6L351 443.7c-0.2-1.7-0.6-3.3-1.1-4.9 33.7-11.1 63.3-31.3 85.8-57.7l161 70c-2.1 10.9-3.1 22.2-3.1 33.7 0 100.4 81.6 182 182 182s182-81.6 182-182-81.6-182-182-182zM493.1 776.9c0 65.1-52.9 118-118 118s-118-52.9-118-118 52.9-118 118-118c65 0 118 53 118 118zM289.8 384.5c-70.6 0-128-57.4-128-128s57.4-128 128-128 128 57.4 128 128-57.4 128-128 128z m485.8 218.3c-65.1 0-118-52.9-118-118s52.9-118 118-118 118 52.9 118 118-52.9 118-118 118z" p-id="4752"></path></svg>