<svg t="1723448954102" class="icon" viewBox="0 0 1024 1024" version="1.1" xmlns="http://www.w3.org/2000/svg" p-id="4138" width="200" height="200"><path d="M571.429 61.643m196 0l0.143 0q196 0 196 196l0 0.143q0 196-196 196l-0.143 0q-196 0-196-196l0-0.143q0-196 196-196Z" fill="currentColor" p-id="4139"></path><path d="M140.071 140.071v235.286h235.286V140.071H140.071z m0-78.428h235.286c43.315 0 78.429 35.114 78.429 78.428v235.286c0 43.315-35.114 78.429-78.429 78.429H140.071c-43.314 0-78.428-35.114-78.428-78.429V140.071C61.643 96.757 96.757 61.643 140.07 61.643z m0 588.214v235.286h235.286V649.857H140.071z m0-78.428h235.286c43.315 0 78.429 35.113 78.429 78.428v235.286c0 43.315-35.114 78.428-78.429 78.428H140.071c-43.314 0-78.428-35.113-78.428-78.428V649.857c0-43.315 35.114-78.428 78.428-78.428z m461.203 29.845v283.869h283.869v-283.87h-283.87z m0-78.429h283.869c43.315 0 78.428 35.114 78.428 78.429v283.869c0 43.315-35.113 78.428-78.428 78.428h-283.87c-43.314 0-78.428-35.113-78.428-78.428v-283.87c0-43.314 35.114-78.428 78.429-78.428z" fill="currentcolor" p-id="4140"></path></svg>