<svg t="1723445628708" class="icon" viewBox="0 0 1024 1024" version="1.1" xmlns="http://www.w3.org/2000/svg" p-id="7176" width="200" height="200"><path d="M512 991.51778439A174.13788427 174.13788427 0 0 1 428.1048552 969.61313087l-282.86569162-155.2845808A174.56332146 174.56332146 0 0 1 54.38686913 661.79322321v-299.52209456a174.50254471 174.50254471 0 0 1 90.78973014-152.53890198L427.67763043 54.38686913a173.6480952 173.6480952 0 0 1 168.21751437 0l282.86569162 155.40613426A174.56332146 174.56332146 0 0 1 969.61313087 362.32833029v299.46131781a174.50254471 174.50254471 0 0 1-90.72895341 152.53890197L596.32236957 969.61313087A174.13788427 174.13788427 0 0 1 512 991.51778439z m0-891.97915716a107.26380285 107.26380285 0 0 0-51.80323646 13.42272267l-282.74235058 155.34356996a107.50869739 107.50869739 0 0 0-55.95035545 93.96442122v299.46131784a107.56947411 107.56947411 0 0 0 56.19346244 93.96442122l282.86747916 155.40434672a106.8365781 106.8365781 0 0 0 103.72445128 0l282.56180792-155.40434672a107.56947411 107.56947411 0 0 0 56.07190894-93.96442122V362.26934108a107.56947411 107.56947411 0 0 0-56.19524999-93.96442122l-283.10879857-155.40434672A107.26380285 107.26380285 0 0 0 512 99.53862723z m350.89631871 685.50447002z" fill="currentColor" p-id="7177"></path><path d="M512 550.13383172L108.20288836 329.86997392a33.49871121 33.49871121 0 0 1 32.0936959-58.81937529L512 473.86616828l371.70341574-202.75300536a33.49871121 33.49871121 0 0 1 32.03291917 58.81758775z" fill="currentColor" p-id="7178"></path><path d="M512 969.61313087a33.49871121 33.49871121 0 0 1-33.49871121-33.49871125V512a33.49871121 33.49871121 0 1 1 67.11718838 0v424.11441962A33.49871121 33.49871121 0 0 1 512 969.61313087z" fill="currentColor" p-id="7179"></path></svg>