<svg t="1723445305331" class="icon" viewBox="0 0 1024 1024" version="1.1" xmlns="http://www.w3.org/2000/svg" p-id="5850" width="200" height="200"><path d="M640 750.933333V853.333333h-42.666667v-132.266666c140.8-29.866667 247.466667-145.066667 256-290.133334h42.666667c-8.533333 149.333333-115.2 277.333333-256 320z m-213.333333 0c-140.8-42.666667-247.466667-170.666667-256-324.266666h42.666666c8.533333 145.066667 115.2 264.533333 256 290.133333V853.333333h-42.666666v-102.4zM635.733333 170.666667C712.533333 170.666667 768 226.133333 768 302.933333c0 68.266667-55.466667 132.266667-98.133333 174.933334-29.866667 29.866667-72.533333 59.733333-136.533334 89.6-64-34.133333-110.933333-64-136.533333-89.6-42.666667-42.666667-98.133333-106.666667-98.133333-174.933334C298.666667 226.133333 354.133333 170.666667 430.933333 170.666667c42.666667 0 76.8 17.066667 102.4 51.2 29.866667-34.133333 64-51.2 102.4-51.2z m4.266667 277.333333c51.2-51.2 85.333333-102.4 85.333333-145.066667 0-55.466667-38.4-89.6-89.6-89.6-21.333333 0-38.4 8.533333-51.2 17.066667-8.533333 4.266667-12.8 8.533333-17.066666 17.066667l-34.133334 42.666666-34.133333-42.666666c-4.266667-8.533333-8.533333-12.8-17.066667-17.066667-12.8-8.533333-29.866667-17.066667-51.2-17.066667C375.466667 213.333333 341.333333 247.466667 341.333333 302.933333c0 42.666667 34.133333 93.866667 85.333334 145.066667 21.333333 21.333333 59.733333 46.933333 106.666666 72.533333 46.933333-25.6 85.333333-51.2 106.666667-72.533333z" p-id="5851"></path></svg>