<svg t="1723444713778" class="icon" viewBox="0 0 1024 1024" version="1.1" xmlns="http://www.w3.org/2000/svg" p-id="3466" width="200" height="200"><path d="M230.4 870.4a25.6 25.6 0 1 1-51.2 0v-256a25.6 25.6 0 1 1 51.2 0v256z m204.8 0a25.6 25.6 0 1 1-51.2 0V460.8a25.6 25.6 0 0 1 51.2 0v409.6z m204.8 0a25.6 25.6 0 1 1-51.2 0v-256a25.6 25.6 0 1 1 51.2 0v256z m204.8 0a25.6 25.6 0 1 1-51.2 0V460.8a25.6 25.6 0 1 1 51.2 0v409.6z m42.3936-608.9216l-232.1408 168.8064a25.6 25.6 0 0 1-33.1776-2.56l-188.928-188.928-314.9312 242.2784a25.6 25.6 0 1 1-31.232-40.5504l332.8-256a25.6 25.6 0 0 1 33.7408 2.1504l189.2864 189.3376 219.5968-159.6928-49.2032-12.288a25.6 25.6 0 0 1 12.3904-49.664l102.4 25.6a25.4976 25.4976 0 0 1 19.0976 28.672l-15.36 102.4a25.6 25.6 0 0 1-50.5856-7.68l6.2464-41.8816z" p-id="3467"></path></svg>