<svg t="1723444895003" class="icon" viewBox="0 0 1024 1024" version="1.1" xmlns="http://www.w3.org/2000/svg" p-id="4406" width="200" height="200"><path d="M512.76 537.91a32.08 32.08 0 0 1-14.11-3.3l-367.3-179.9a32 32 0 0 1 0-57.43l367.3-180a31.82 31.82 0 0 1 28.22 0l367.4 180a32 32 0 0 1 0 57.43l-367.4 179.9a31.48 31.48 0 0 1-14.11 3.3zM218.2 325.9l294.56 144.28L807.32 325.9 512.76 181.62z" fill="currentColor" p-id="4407"></path><path d="M512.76 720.21a32.08 32.08 0 0 1-14.11-3.3L131.35 537a32 32 0 1 1 28.12-57.53l353.29 173.1 353.29-173.1A32 32 0 1 1 894.17 537l-367.3 180a32.76 32.76 0 0 1-14.11 3.2z" fill="currentColor" p-id="4408"></path><path d="M512.76 901.81a32.08 32.08 0 0 1-14.11-3.3l-367.3-180A32 32 0 1 1 159.47 661l353.29 173.1L866.05 661a32 32 0 1 1 28.12 57.53l-367.3 180a31.48 31.48 0 0 1-14.11 3.3z" fill="currentColor" p-id="4409"></path></svg>