<?xml version="1.0" standalone="no"?><!DOCTYPE svg PUBLIC "-//W3C//DTD SVG 1.1//EN" "http://www.w3.org/Graphics/SVG/1.1/DTD/svg11.dtd"><svg height="1494" node-id="1" sillyvg="true" template-height="1494" template-width="1259" version="1.1" viewBox="0 0 1259 1494" width="1259" xmlns="http://www.w3.org/2000/svg" xmlns:xlink="http://www.w3.org/1999/xlink"><defs node-id="32"></defs><g node-id="153"><path d="M 850.40 37.70 L 876.60 46.40 L 885.00 49.60 L 900.80 56.70 L 908.30 60.70 L 915.50 65.10 L 922.40 69.90 L 929.00 75.00 L 935.20 80.70 L 941.10 87.00 L 949.00 97.30 L 956.20 109.30 L 960.00 117.30 L 963.10 125.40 L 965.60 133.70 L 967.50 142.20 L 968.90 150.80 L 969.70 159.40 L 969.90 168.20 L 969.70 177.10 L 968.90 185.90 L 967.70 194.70 L 966.00 203.40 L 963.90 212.10 L 961.30 220.60 L 958.30 229.00 L 955.00 237.20 L 951.30 245.20 L 950.90 247.90 L 956.80 262.30 L 961.70 275.60 L 966.10 289.20 L 970.00 303.10 L 973.40 317.10 L 976.30 331.30 L 978.80 345.70 L 980.70 360.30 L 982.30 374.90 L 983.40 389.60 L 984.10 404.40 L 984.30 433.90 L 983.00 463.30 L 981.80 477.80 L 979.70 497.10 L 977.10 516.10 L 974.00 534.60 L 966.70 539.20 L 960.00 544.30 L 953.80 549.90 L 948.20 556.10 L 943.20 562.80 L 938.60 570.20 L 934.60 578.10 L 931.10 586.80 L 926.00 602.00 L 921.20 618.50 L 916.80 636.40 L 912.70 656.00 L 907.60 685.10 L 905.80 692.90 L 903.60 700.60 L 900.90 708.00 L 897.70 715.40 L 894.00 722.60 L 892.30 725.10 L 891.20 726.10 L 890.50 726.20 L 889.90 725.80 L 889.40 724.50 L 889.10 721.40 L 888.80 714.30 L 888.90 699.60 L 891.80 668.50 L 893.60 644.60 L 894.80 620.80 L 895.50 597.00 L 895.80 573.20 L 895.60 549.40 L 894.30 501.70 L 891.10 442.00 L 888.50 406.00 L 887.20 391.20 L 885.30 376.50 L 882.70 361.80 L 880.80 354.30 L 878.30 346.70 L 875.20 338.90 L 871.50 331.30 L 867.30 323.90 L 862.50 316.60 L 857.30 309.50 L 851.70 302.90 L 845.60 296.70 L 835.80 288.20 L 825.30 281.20 L 819.70 278.30 L 814.00 275.80 L 808.20 273.80 L 802.30 272.20 L 692.70 248.40 L 569.90 221.30 L 566.50 220.70 L 563.10 220.50 L 559.80 220.70 L 556.40 221.30 L 546.60 224.30 L 537.00 227.70 L 527.60 231.60 L 518.40 236.10 L 509.50 241.10 L 500.90 246.60 L 492.60 252.50 L 484.60 258.90 L 476.60 266.10 L 469.00 273.60 L 461.80 281.40 L 455.00 289.50 L 448.70 297.80 L 442.80 306.50 L 437.20 315.30 L 431.90 324.40 L 427.10 333.70 L 422.60 343.30 L 417.50 355.40 L 412.90 367.80 L 408.70 380.40 L 405.10 393.30 L 402.00 406.30 L 399.20 419.30 L 397.00 432.50 L 395.10 445.80 L 393.20 463.70 L 392.00 481.40 L 391.40 499.00 L 391.20 527.40 L 391.80 559.70 L 393.10 596.10 L 395.30 637.00 L 398.40 682.80 L 402.60 733.80 L 402.30 734.20 L 401.00 734.30 L 395.10 705.70 L 388.90 673.50 L 379.80 623.90 L 376.90 610.90 L 373.40 598.00 L 369.40 585.30 L 364.90 572.70 L 358.70 558.40 L 356.40 554.20 L 351.40 547.10 L 348.50 543.90 L 345.20 541.20 L 341.60 538.70 L 337.60 536.60 L 333.00 534.90 L 326.40 532.80 L 325.40 531.90 L 324.60 530.50 L 324.10 528.60 L 325.40 526.60 L 325.80 524.40 L 323.70 506.00 L 322.10 487.60 L 321.00 469.20 L 320.30 450.70 L 320.10 432.30 L 320.40 413.80 L 321.20 395.40 L 322.40 376.90 L 324.10 358.60 L 326.20 340.30 L 332.00 302.50 L 331.60 301.80 L 331.00 301.40 L 329.90 301.20 L 267.90 301.30 L 266.30 301.10 L 265.20 300.60 L 264.50 299.80 L 264.10 298.70 L 264.10 297.10 L 265.70 287.40 L 267.70 278.10 L 270.30 268.90 L 273.40 260.00 L 277.00 251.20 L 281.10 242.80 L 285.60 234.70 L 290.60 227.10 L 295.00 221.10 L 299.70 215.60 L 304.60 210.30 L 309.80 205.40 L 315.40 200.70 L 321.10 196.40 L 327.20 192.60 L 333.50 189.10 L 340.20 186.00 L 347.10 183.30 L 354.10 181.10 L 361.40 179.40 L 369.00 178.10 L 377.00 177.40 L 399.70 177.10 L 403.00 176.90 L 403.90 176.50 L 403.90 176.20 L 403.20 175.60 L 400.20 174.40 L 391.10 171.70 L 382.70 169.80 L 374.70 168.70 L 367.20 168.20 L 360.10 168.30 L 353.40 169.00 L 347.00 170.30 L 340.90 172.20 L 328.90 177.20 L 326.60 177.80 L 326.00 177.60 L 326.10 177.00 L 327.60 175.20 L 332.60 170.80 L 336.50 167.90 L 340.50 165.50 L 344.70 163.40 L 349.00 161.70 L 355.00 160.10 L 361.00 159.00 L 367.30 158.50 L 373.60 158.60 L 379.90 159.20 L 386.20 160.30 L 392.50 162.00 L 398.60 164.00 L 404.60 166.50 L 410.40 169.30 L 415.80 172.50 L 421.00 176.10 L 422.40 176.80 L 423.30 176.80 L 424.00 176.20 L 424.40 174.70 L 425.90 165.10 L 427.80 155.80 L 430.20 146.70 L 433.00 137.90 L 436.20 129.30 L 439.80 120.80 L 443.90 112.60 L 448.30 104.60 L 453.00 96.80 L 458.20 89.30 L 463.70 82.10 L 469.60 75.10 L 475.80 68.40 L 482.40 61.90 L 489.30 55.70 L 496.50 49.80 L 503.90 44.20 L 511.70 38.90 L 519.80 33.90 L 528.20 29.20 L 536.80 24.80 L 545.50 21.10 L 554.30 18.00 L 563.10 15.60 L 572.10 13.70 L 581.20 12.40 L 590.30 11.50 L 599.50 11.10 L 608.60 11.20 L 627.10 12.60 L 636.30 13.90 L 648.60 16.10 L 660.80 18.70 L 675.00 22.30 L 677.20 22.30 L 679.30 21.90 L 681.20 21.10 L 683.00 19.80 L 688.70 13.60 L 693.10 9.80 L 697.70 6.70 L 702.40 4.10 L 707.40 2.20 L 712.60 0.90 L 718.10 0.10 L 724.00 0.00 L 730.20 0.60 L 741.30 2.40 L 752.20 4.70 L 763.00 7.50 L 773.70 10.80 L 806.30 22.90 L 828.40 30.60 L 850.40 37.70 Z" fill="#1f364e" fill-rule="nonzero" group-id="1" node-id="36" stroke="none" target-height="734.3" target-width="720.19995" target-x="264.1" target-y="0"></path></g><g node-id="154"><path d="M 973.90 534.60 L 981.40 534.70 L 988.00 535.40 L 993.80 536.70 L 998.80 538.40 L 1003.20 540.60 L 1007.10 543.30 L 1010.50 546.40 L 1013.40 549.90 L 1015.80 554.00 L 1017.80 558.60 L 1019.40 563.90 L 1020.50 572.80 L 1020.50 579.50 L 1020.10 588.20 L 1019.20 599.30 L 1017.90 608.20 L 1015.80 618.70 L 1012.60 630.90 L 1008.10 645.20 L 1002.30 661.60 L 998.90 670.30 L 990.80 687.70 L 986.10 696.20 L 981.10 704.40 L 975.60 712.30 L 971.20 718.00 L 966.60 723.40 L 956.60 733.20 L 951.20 737.50 L 945.60 741.50 L 939.70 744.90 L 933.60 748.00 L 928.60 750.00 L 923.40 751.70 L 917.90 753.00 L 905.00 754.70 L 903.90 755.40 L 903.00 756.50 L 897.70 782.10 L 894.60 794.00 L 891.00 805.70 L 887.00 817.30 L 882.60 828.70 L 877.70 839.80 L 872.40 850.80 L 866.60 861.40 L 860.40 871.90 L 853.80 882.10 L 846.70 892.00 L 839.20 901.50 L 831.30 910.80 L 816.30 926.90 L 810.70 933.60 L 799.70 942.30 L 788.60 950.60 L 777.60 958.30 L 766.20 965.50 L 754.70 972.10 L 742.90 978.10 L 733.90 982.20 L 724.70 985.90 L 715.30 989.10 L 705.70 992.00 L 695.90 994.40 L 685.90 996.40 L 675.50 997.80 L 664.70 998.90 L 651.30 999.40 L 638.20 999.30 L 625.40 998.50 L 612.80 997.00 L 600.50 994.80 L 588.40 991.90 L 576.50 988.40 L 564.80 984.20 L 553.20 979.30 L 541.80 973.70 L 530.50 967.40 L 519.40 960.40 L 513.10 955.70 L 500.70 945.50 L 479.20 926.80 L 468.50 914.80 L 458.50 902.50 L 449.10 889.70 L 440.40 876.60 L 432.40 863.00 L 425.00 849.00 L 418.20 834.50 L 412.10 819.60 L 406.60 804.20 L 401.80 788.20 L 399.60 779.00 L 398.00 769.60 L 397.10 760.20 L 396.80 759.00 L 396.10 758.00 L 395.10 757.40 L 393.90 757.10 L 387.90 756.60 L 382.10 755.50 L 376.40 753.70 L 370.80 751.30 L 365.30 748.20 L 359.80 744.30 L 354.30 739.60 L 347.60 733.00 L 341.40 726.00 L 335.60 718.70 L 330.40 711.10 L 325.50 703.20 L 321.00 695.00 L 316.80 686.70 L 313.10 678.00 L 308.60 666.30 L 304.60 654.30 L 301.10 642.00 L 295.50 617.10 L 293.30 604.60 L 291.20 589.80 L 290.20 578.10 L 290.10 569.10 L 290.60 562.20 L 291.60 557.00 L 292.90 553.00 L 295.80 547.00 L 299.50 542.40 L 304.70 538.20 L 308.20 536.30 L 324.10 528.50 L 324.60 530.50 L 325.40 531.90 L 326.40 532.80 L 333.00 534.80 L 337.60 536.60 L 341.60 538.60 L 345.20 541.10 L 348.50 543.90 L 351.40 547.00 L 354.00 550.40 L 358.70 558.40 L 364.90 572.60 L 369.40 585.20 L 373.40 598.00 L 376.90 610.80 L 379.80 623.90 L 388.90 673.40 L 400.90 734.10 L 401.20 734.30 L 402.60 734.00 L 398.40 682.70 L 395.30 637.00 L 393.10 596.10 L 391.80 559.70 L 391.20 527.40 L 391.40 499.00 L 392.00 481.40 L 393.20 463.70 L 395.10 445.90 L 397.00 432.50 L 399.20 419.40 L 402.00 406.30 L 405.10 393.30 L 408.70 380.40 L 412.90 367.80 L 417.50 355.40 L 422.60 343.30 L 427.10 333.70 L 431.90 324.40 L 437.20 315.30 L 442.70 306.50 L 448.70 297.80 L 455.00 289.50 L 461.80 281.40 L 468.90 273.60 L 476.50 266.20 L 484.60 258.90 L 492.60 252.50 L 500.90 246.60 L 509.50 241.10 L 518.40 236.10 L 527.50 231.70 L 536.90 227.70 L 546.50 224.30 L 556.40 221.30 L 559.70 220.70 L 563.10 220.50 L 566.50 220.70 L 569.80 221.30 L 692.60 248.40 L 802.30 272.20 L 808.20 273.80 L 814.00 275.80 L 819.70 278.30 L 825.20 281.20 L 835.70 288.20 L 845.60 296.70 L 851.60 302.90 L 857.30 309.50 L 862.50 316.60 L 867.30 323.90 L 871.50 331.40 L 875.10 338.90 L 878.30 346.70 L 880.80 354.40 L 882.70 361.80 L 885.20 376.50 L 887.20 391.20 L 888.50 406.10 L 891.00 442.00 L 894.30 501.70 L 895.60 549.40 L 895.80 573.20 L 895.50 597.00 L 894.80 620.80 L 893.50 644.60 L 891.80 668.50 L 888.90 699.60 L 888.70 707.00 L 889.00 721.40 L 889.40 724.50 L 889.90 725.80 L 890.40 726.30 L 891.10 726.10 L 892.20 725.20 L 893.90 722.60 L 897.70 715.40 L 900.90 708.00 L 903.50 700.60 L 905.80 692.90 L 907.60 685.10 L 912.70 656.00 L 916.80 636.40 L 921.20 618.50 L 926.00 602.00 L 931.00 586.90 L 934.50 578.20 L 938.60 570.20 L 943.10 562.80 L 948.20 556.10 L 953.80 549.90 L 959.90 544.30 L 966.60 539.20 L 973.90 534.60 Z M 565.50 462.40 L 559.70 460.30 L 553.10 458.50 L 545.80 456.90 L 530.50 454.80 L 522.30 454.30 L 505.80 454.30 L 497.40 454.90 L 489.10 455.90 L 481.00 457.30 L 473.30 459.10 L 465.70 461.40 L 458.60 464.10 L 452.20 467.20 L 447.60 469.90 L 443.40 472.90 L 439.70 476.10 L 436.40 479.60 L 435.10 481.90 L 434.80 483.20 L 435.30 485.80 L 436.80 487.60 L 437.90 488.20 L 440.30 488.40 L 451.20 486.20 L 472.10 482.90 L 482.40 481.90 L 492.70 481.40 L 502.90 481.30 L 513.10 481.70 L 523.40 482.60 L 533.80 484.00 L 544.20 486.00 L 554.90 488.70 L 569.50 492.80 L 572.30 493.00 L 574.40 492.60 L 576.10 491.70 L 577.50 490.30 L 578.60 488.40 L 579.30 485.70 L 579.70 482.10 L 578.90 476.90 L 577.70 473.70 L 576.00 470.70 L 573.90 468.10 L 571.40 465.80 L 568.60 463.90 L 565.50 462.40 Z M 854.10 484.60 L 852.20 482.30 L 849.90 480.20 L 847.20 478.30 L 842.60 475.80 L 837.50 473.60 L 832.00 471.80 L 820.80 469.20 L 806.10 467.10 L 786.70 465.80 L 777.00 465.80 L 757.60 466.70 L 738.40 469.00 L 728.80 470.70 L 725.70 471.70 L 722.90 473.10 L 720.40 475.10 L 717.70 477.90 L 715.70 480.70 L 714.20 483.50 L 713.30 486.40 L 712.90 489.30 L 713.00 492.40 L 713.50 495.60 L 714.50 497.80 L 715.70 499.40 L 717.30 500.40 L 719.20 501.00 L 721.70 501.00 L 739.40 496.40 L 753.40 493.20 L 766.90 490.70 L 779.80 489.10 L 792.30 488.10 L 804.30 487.80 L 815.90 488.20 L 827.10 489.20 L 837.90 490.80 L 852.20 493.80 L 854.50 493.80 L 856.00 493.30 L 856.80 492.70 L 857.10 491.70 L 857.00 490.20 L 856.10 487.90 L 854.10 484.60 Z M 470.10 569.80 L 481.90 577.60 L 494.00 584.80 L 502.40 588.40 L 506.50 589.70 L 513.10 591.10 L 519.20 591.70 L 524.90 591.60 L 530.30 590.90 L 535.30 589.50 L 540.10 587.40 L 544.70 584.80 L 549.00 581.40 L 553.20 577.30 L 557.30 572.30 L 562.00 565.30 L 565.40 563.20 L 566.30 562.30 L 567.20 559.40 L 568.40 558.50 L 568.90 557.40 L 568.90 556.10 L 568.30 554.50 L 566.70 552.40 L 563.90 549.60 L 559.20 545.80 L 554.30 542.50 L 549.30 539.70 L 544.10 537.30 L 538.70 535.30 L 533.30 533.80 L 527.70 532.60 L 522.10 531.80 L 510.70 531.40 L 499.30 532.50 L 491.80 534.00 L 484.40 536.10 L 477.20 538.90 L 470.20 542.20 L 463.50 546.00 L 456.30 551.10 L 455.60 553.00 L 455.80 554.00 L 457.00 557.50 L 458.70 560.60 L 460.80 563.40 L 463.40 565.80 L 466.50 568.00 L 470.10 569.80 Z M 721.00 568.50 L 721.70 571.90 L 722.70 573.10 L 728.80 577.70 L 735.20 581.80 L 741.90 585.40 L 748.80 588.60 L 755.90 591.20 L 763.30 593.30 L 770.30 594.40 L 774.10 594.50 L 781.70 593.80 L 789.10 591.90 L 792.50 590.60 L 798.80 587.00 L 801.50 584.80 L 809.40 576.00 L 813.80 571.50 L 817.30 568.60 L 820.00 566.90 L 822.90 567.50 L 825.60 567.50 L 828.00 567.00 L 830.30 565.90 L 832.50 564.20 L 834.60 561.70 L 836.60 558.30 L 837.00 557.40 L 836.90 556.30 L 836.50 555.40 L 835.60 554.80 L 829.40 551.30 L 816.00 545.00 L 808.90 542.20 L 801.70 539.90 L 794.40 537.90 L 787.00 536.40 L 779.60 535.50 L 772.40 535.10 L 766.90 535.20 L 761.60 535.70 L 756.50 536.60 L 751.50 537.90 L 746.60 539.70 L 741.90 541.90 L 737.40 544.60 L 733.10 547.80 L 729.10 551.50 L 725.40 555.70 L 721.90 560.60 L 718.50 566.90 L 718.60 567.70 L 719.60 568.60 L 720.30 568.80 L 721.00 568.50 Z M 339.70 620.80 L 359.90 639.80 L 360.60 639.80 L 362.20 638.10 L 362.40 636.40 L 328.10 593.10 L 323.80 587.10 L 319.70 580.10 L 315.70 572.00 L 311.80 562.80 L 310.70 561.50 L 309.10 561.40 L 307.50 561.80 L 307.10 563.10 L 308.30 569.60 L 310.20 575.90 L 312.60 582.00 L 315.50 588.00 L 319.10 593.80 L 323.30 599.50 L 329.30 606.70 L 330.40 610.10 L 330.10 613.70 L 327.30 619.50 L 325.70 623.80 L 324.40 628.10 L 323.60 632.60 L 323.20 637.10 L 323.30 641.70 L 324.00 645.50 L 324.40 645.80 L 324.90 645.60 L 327.00 642.40 L 336.70 621.40 L 337.30 620.40 L 338.00 620.00 L 338.70 620.10 L 339.70 620.80 Z M 578.80 711.30 L 577.40 713.20 L 576.90 714.80 L 576.90 716.40 L 577.60 717.80 L 579.00 719.40 L 581.50 721.00 L 603.70 733.10 L 611.30 736.60 L 621.50 740.30 L 626.50 741.60 L 633.40 742.70 L 640.30 743.00 L 647.30 742.70 L 654.30 741.70 L 661.50 740.00 L 668.80 737.50 L 676.30 734.30 L 684.00 730.10 L 691.90 725.00 L 694.50 722.80 L 696.70 720.30 L 698.50 717.40 L 699.80 714.00 L 700.80 710.10 L 701.20 705.60 L 698.10 689.10 L 694.50 672.80 L 690.40 656.60 L 685.70 640.60 L 680.60 624.60 L 676.40 612.80 L 671.80 601.20 L 666.90 589.80 L 661.50 578.50 L 659.40 574.80 L 657.10 571.70 L 654.50 569.20 L 651.70 567.20 L 648.70 565.70 L 645.40 564.70 L 641.80 564.10 L 637.70 564.10 L 633.70 564.60 L 630.20 565.70 L 626.90 567.40 L 623.90 569.50 L 621.20 571.90 L 618.70 574.80 L 614.80 581.20 L 613.30 584.70 L 607.60 600.10 L 602.30 615.70 L 597.30 631.30 L 592.80 647.10 L 588.70 663.00 L 585.00 679.00 L 581.70 695.10 L 578.80 711.30 Z M 974.10 627.80 L 982.00 638.40 L 983.10 638.90 L 984.40 638.80 L 986.90 637.20 L 982.20 623.50 L 981.00 617.90 L 980.30 612.90 L 980.40 611.30 L 980.90 609.90 L 981.80 608.70 L 1001.20 588.30 L 1002.50 586.60 L 1003.20 584.70 L 1003.50 582.70 L 1003.10 580.60 L 999.50 567.40 L 998.40 565.70 L 997.50 565.20 L 995.40 565.20 L 988.70 570.10 L 983.10 575.00 L 977.60 580.60 L 972.50 586.40 L 962.70 599.00 L 955.80 608.90 L 943.10 629.40 L 936.40 641.20 L 935.60 645.10 L 936.00 646.50 L 937.10 647.60 L 937.80 647.80 L 939.30 647.70 L 967.10 626.70 L 968.30 626.10 L 970.80 625.80 L 972.10 626.20 L 974.10 627.80 Z M 527.20 675.40 L 528.40 670.60 L 529.20 665.80 L 529.50 661.10 L 529.00 651.60 L 527.10 642.50 L 525.60 638.10 L 523.10 632.40 L 520.00 627.00 L 516.30 621.80 L 509.80 614.90 L 506.20 611.80 L 498.10 606.30 L 493.70 604.00 L 484.20 600.40 L 474.20 598.30 L 469.30 597.90 L 459.60 598.20 L 450.20 599.80 L 445.60 601.20 L 439.80 603.50 L 434.30 606.40 L 429.00 609.90 L 422.00 616.00 L 415.90 623.20 L 413.30 627.10 L 411.10 631.30 L 409.20 635.70 L 407.50 640.40 L 406.40 645.20 L 405.60 650.00 L 405.30 659.50 L 405.70 664.20 L 407.70 673.30 L 409.20 677.80 L 411.70 683.50 L 414.80 688.90 L 418.50 694.00 L 424.90 700.90 L 428.60 704.10 L 436.60 709.50 L 441.00 711.80 L 450.50 715.40 L 460.50 717.50 L 465.40 718.00 L 475.20 717.70 L 479.90 717.00 L 489.10 714.60 L 495.00 712.30 L 500.50 709.40 L 505.70 706.00 L 509.40 703.10 L 515.90 696.40 L 521.40 688.80 L 523.70 684.60 L 527.20 675.40 Z M 756.70 652.20 L 756.90 659.50 L 757.70 666.30 L 759.00 672.50 L 760.90 678.40 L 763.20 683.80 L 766.00 688.90 L 769.30 693.60 L 773.20 698.00 L 778.50 703.00 L 783.80 707.20 L 789.30 710.80 L 794.90 713.70 L 800.70 716.00 L 806.60 717.70 L 812.80 718.80 L 819.10 719.40 L 824.30 719.30 L 829.40 718.70 L 834.70 717.70 L 839.80 716.20 L 844.80 714.20 L 849.60 711.90 L 854.30 709.10 L 858.70 705.90 L 862.70 702.40 L 866.50 698.50 L 869.80 694.30 L 872.60 689.70 L 875.00 684.90 L 876.80 679.80 L 878.00 674.30 L 878.70 668.90 L 878.90 664.00 L 878.70 659.40 L 878.10 655.10 L 877.20 651.20 L 875.00 644.70 L 872.20 638.60 L 868.70 632.70 L 864.50 627.00 L 859.60 621.60 L 853.90 616.30 L 847.40 611.30 L 840.00 606.50 L 831.50 601.90 L 826.30 599.70 L 821.20 598.30 L 816.30 597.70 L 811.50 597.80 L 806.60 598.70 L 801.70 600.40 L 796.30 602.80 L 785.50 608.70 L 780.40 612.10 L 775.60 615.90 L 771.10 620.00 L 765.20 626.80 L 760.70 634.40 L 759.00 638.50 L 757.80 642.80 L 757.00 647.30 L 756.60 652.20 Z M 751.10 794.00 L 738.90 797.40 L 731.20 798.90 L 726.70 799.30 L 697.60 799.20 L 668.50 799.70 L 639.40 800.70 L 610.40 802.30 L 581.40 804.40 L 575.30 804.70 L 569.30 804.50 L 545.20 801.40 L 530.10 777.30 L 528.50 775.60 L 526.00 774.10 L 523.60 773.80 L 522.40 774.00 L 521.90 774.40 L 521.80 775.00 L 522.20 776.20 L 527.10 782.60 L 530.10 787.30 L 540.10 807.90 L 548.10 823.30 L 556.60 838.40 L 561.10 845.30 L 565.90 851.70 L 571.10 857.70 L 576.60 863.20 L 582.50 868.30 L 588.60 873.00 L 595.00 877.20 L 601.60 880.90 L 608.50 884.20 L 615.40 886.90 L 622.60 889.20 L 629.80 890.90 L 637.20 892.10 L 644.60 892.80 L 652.00 892.90 L 659.50 892.50 L 666.90 891.60 L 674.20 890.10 L 681.40 887.90 L 688.60 885.20 L 695.50 882.00 L 702.30 878.10 L 708.90 873.50 L 715.40 868.30 L 721.00 862.90 L 726.10 857.40 L 730.70 851.60 L 738.90 839.30 L 742.40 832.80 L 747.40 822.90 L 751.90 812.60 L 762.30 787.60 L 764.30 783.80 L 768.90 776.50 L 769.50 774.90 L 769.40 774.30 L 768.90 774.20 L 767.30 774.80 L 763.60 777.10 L 760.30 779.80 L 757.10 783.40 L 754.00 788.10 L 751.10 794.00 Z" fill="#f7c2bb" fill-rule="nonzero" group-id="2" node-id="41" stroke="none" target-height="778.9" target-width="730.4" target-x="290.1" target-y="220.5"></path></g><g node-id="155"><path d="M 436.40 479.60 L 439.70 476.10 L 443.40 472.90 L 447.60 469.90 L 452.20 467.20 L 458.60 464.10 L 465.70 461.40 L 473.30 459.10 L 481.00 457.30 L 489.10 455.90 L 497.40 454.90 L 514.10 454.10 L 530.50 454.80 L 545.80 456.90 L 553.10 458.50 L 559.70 460.30 L 565.50 462.40 L 568.60 463.90 L 571.40 465.80 L 573.90 468.10 L 576.00 470.70 L 577.70 473.70 L 578.90 476.90 L 579.70 482.10 L 579.30 485.70 L 578.60 488.40 L 577.50 490.30 L 576.10 491.70 L 574.40 492.60 L 572.30 493.00 L 569.50 492.80 L 554.90 488.70 L 544.20 486.00 L 533.80 484.00 L 523.40 482.60 L 513.10 481.70 L 502.90 481.30 L 492.70 481.40 L 482.40 481.90 L 472.10 482.90 L 461.80 484.30 L 439.10 488.40 L 436.80 487.60 L 435.30 485.80 L 434.80 483.20 L 435.10 481.90 L 436.40 479.60 Z" fill="#1f364e" fill-rule="nonzero" group-id="3" node-id="46" stroke="none" target-height="38.899994" target-width="144.90002" target-x="434.8" target-y="454.1"></path></g><g node-id="156"><path d="M 806.10 467.10 L 815.50 468.30 L 826.40 470.40 L 837.50 473.60 L 842.60 475.80 L 847.20 478.30 L 849.90 480.20 L 852.20 482.30 L 854.10 484.60 L 856.10 487.90 L 857.00 490.20 L 857.10 491.70 L 856.80 492.60 L 856.00 493.30 L 854.60 493.70 L 852.20 493.70 L 837.90 490.80 L 827.10 489.20 L 815.90 488.20 L 804.30 487.80 L 792.30 488.10 L 779.80 489.00 L 766.90 490.70 L 753.40 493.10 L 739.40 496.30 L 724.80 500.40 L 721.70 501.00 L 719.20 501.00 L 717.30 500.40 L 715.70 499.40 L 714.50 497.80 L 713.50 495.50 L 713.00 492.40 L 712.90 489.30 L 713.30 486.40 L 714.20 483.50 L 715.70 480.70 L 717.70 477.80 L 720.40 475.00 L 722.90 473.10 L 725.70 471.60 L 728.80 470.70 L 748.00 467.60 L 767.30 466.00 L 786.70 465.80 L 806.10 467.10 Z" fill="#1f364e" fill-rule="nonzero" group-id="4" node-id="51" stroke="none" target-height="35.200012" target-width="144.19995" target-x="712.9" target-y="465.8"></path></g><g node-id="157"><path d="M 567.20 559.40 L 564.00 556.10 L 560.40 553.10 L 556.40 550.70 L 552.20 548.80 L 551.10 548.50 L 550.40 548.70 L 550.00 549.30 L 549.80 550.40 L 548.80 558.80 L 546.60 565.80 L 544.40 570.00 L 541.90 573.70 L 538.90 576.80 L 535.60 579.40 L 532.10 581.50 L 528.30 583.10 L 524.40 584.10 L 520.40 584.60 L 516.30 584.60 L 512.30 584.00 L 508.40 582.90 L 504.60 581.10 L 501.90 579.50 L 497.00 575.10 L 492.80 569.50 L 489.50 562.50 L 488.30 558.30 L 488.00 556.10 L 488.30 552.00 L 489.30 549.00 L 491.50 544.70 L 491.50 543.90 L 491.20 543.50 L 488.70 543.80 L 482.60 546.00 L 476.60 548.50 L 470.80 551.40 L 465.10 554.70 L 464.20 555.50 L 463.30 557.80 L 463.50 559.00 L 464.70 562.00 L 468.00 567.50 L 470.20 569.90 L 466.50 568.00 L 463.40 565.80 L 460.80 563.40 L 458.70 560.60 L 457.00 557.50 L 455.70 554.00 L 455.80 551.90 L 457.00 550.30 L 463.40 546.00 L 470.10 542.10 L 477.20 538.90 L 484.40 536.10 L 491.80 534.00 L 499.30 532.50 L 505.00 531.80 L 510.70 531.40 L 522.10 531.80 L 527.70 532.60 L 533.20 533.70 L 538.70 535.30 L 544.10 537.30 L 549.20 539.70 L 554.30 542.50 L 559.10 545.80 L 563.90 549.60 L 566.70 552.40 L 568.20 554.50 L 568.90 556.10 L 568.90 557.40 L 568.30 558.50 L 567.20 559.40 Z" fill="#1f364e" fill-rule="nonzero" group-id="5" node-id="56" stroke="none" target-height="53.19995" target-width="113.20001" target-x="455.7" target-y="531.4"></path></g><g node-id="158"><path d="M 820.00 566.90 L 824.20 559.00 L 824.70 557.60 L 824.60 556.50 L 824.00 555.60 L 822.70 554.90 L 809.00 549.40 L 808.00 549.20 L 807.00 549.60 L 806.40 550.40 L 805.30 560.40 L 804.20 564.80 L 802.60 569.00 L 800.50 573.00 L 798.00 576.90 L 795.30 580.00 L 792.30 582.60 L 789.00 584.50 L 785.40 586.00 L 781.70 587.00 L 777.80 587.50 L 773.90 587.60 L 769.90 587.10 L 766.00 586.30 L 762.20 585.10 L 758.70 583.40 L 755.30 581.40 L 752.30 579.00 L 749.60 576.40 L 747.30 573.40 L 745.60 570.10 L 744.30 566.60 L 743.70 562.70 L 743.60 559.80 L 744.70 553.40 L 746.80 547.50 L 746.70 546.40 L 746.30 546.00 L 745.20 546.10 L 742.90 547.20 L 734.60 553.20 L 727.30 560.30 L 721.00 568.40 L 720.30 568.70 L 719.60 568.60 L 718.60 567.60 L 718.70 566.20 L 722.00 560.50 L 725.40 555.60 L 729.20 551.40 L 733.10 547.80 L 737.40 544.50 L 741.90 541.80 L 746.60 539.60 L 751.50 537.90 L 756.50 536.60 L 761.70 535.70 L 767.00 535.10 L 772.40 535.00 L 779.70 535.40 L 787.00 536.30 L 794.40 537.80 L 801.70 539.80 L 808.90 542.20 L 816.00 544.90 L 829.40 551.30 L 835.60 554.70 L 836.50 555.40 L 836.90 556.30 L 837.00 557.30 L 836.60 558.30 L 834.60 561.60 L 832.50 564.10 L 830.30 565.90 L 828.00 567.00 L 825.60 567.50 L 822.90 567.50 L 820.00 566.90 Z" fill="#1f364e" fill-rule="nonzero" group-id="6" node-id="61" stroke="none" target-height="52.599976" target-width="118.400024" target-x="718.6" target-y="535"></path></g><g node-id="159"><path d="M 567.20 559.40 L 566.90 561.00 L 566.30 562.30 L 565.40 563.20 L 561.90 565.30 L 557.20 572.30 L 553.20 577.30 L 549.00 581.40 L 544.60 584.80 L 540.00 587.40 L 535.20 589.50 L 530.20 590.80 L 524.90 591.60 L 519.20 591.70 L 513.10 591.10 L 506.50 589.70 L 498.10 586.80 L 487.90 581.40 L 470.10 569.80 L 467.90 567.40 L 464.60 562.00 L 463.50 559.00 L 463.30 557.80 L 464.10 555.50 L 465.10 554.70 L 470.70 551.40 L 476.50 548.50 L 482.50 545.90 L 490.40 543.40 L 491.20 543.50 L 491.50 543.90 L 491.50 544.70 L 489.20 549.10 L 488.30 552.00 L 487.90 556.10 L 488.30 558.20 L 489.50 562.40 L 492.80 569.50 L 497.00 575.10 L 501.90 579.40 L 504.60 581.10 L 508.40 582.80 L 512.30 584.00 L 516.30 584.60 L 520.40 584.60 L 524.30 584.10 L 528.30 583.00 L 532.00 581.50 L 535.60 579.40 L 538.90 576.70 L 541.80 573.60 L 544.40 570.00 L 546.60 565.80 L 548.80 558.80 L 549.70 550.40 L 549.90 549.30 L 550.40 548.70 L 551.10 548.50 L 552.20 548.70 L 556.40 550.70 L 560.40 553.10 L 564.00 556.00 L 567.20 559.40 Z" fill="#f9fbf9" fill-rule="nonzero" group-id="7" node-id="66" stroke="none" target-height="48.299988" target-width="103.900024" target-x="463.3" target-y="543.4"></path></g><g node-id="160"><path d="M 820.00 566.90 L 817.30 568.60 L 813.80 571.50 L 809.40 575.90 L 801.50 584.80 L 798.80 587.00 L 795.80 588.90 L 789.10 591.90 L 785.40 593.00 L 781.70 593.80 L 774.10 594.50 L 770.30 594.40 L 763.30 593.20 L 755.90 591.10 L 748.80 588.50 L 741.90 585.40 L 735.20 581.80 L 728.80 577.70 L 722.70 573.10 L 721.70 571.90 L 721.00 568.40 L 727.20 560.30 L 734.60 553.20 L 742.90 547.20 L 745.20 546.10 L 746.20 546.00 L 746.70 546.40 L 746.80 547.50 L 744.70 553.40 L 743.90 556.70 L 743.60 559.80 L 743.70 562.70 L 744.30 566.60 L 745.50 570.10 L 747.30 573.40 L 749.60 576.40 L 752.20 579.10 L 755.30 581.40 L 758.70 583.40 L 762.20 585.10 L 766.00 586.30 L 769.90 587.20 L 773.80 587.60 L 777.80 587.50 L 781.70 587.00 L 785.40 586.00 L 789.00 584.60 L 792.30 582.60 L 795.30 580.00 L 798.00 576.90 L 800.50 573.10 L 802.60 569.00 L 804.20 564.80 L 805.30 560.40 L 805.90 556.00 L 806.10 551.40 L 806.40 550.40 L 807.00 549.60 L 808.00 549.30 L 809.00 549.40 L 822.70 554.90 L 823.90 555.60 L 824.60 556.50 L 824.70 557.60 L 824.20 559.00 Z" fill="#f9fbf9" fill-rule="nonzero" group-id="8" node-id="71" stroke="none" target-height="48.5" target-width="103.70001" target-x="721" target-y="546"></path></g><g node-id="161"><path d="M 336.70 621.30 L 327.00 642.30 L 324.90 645.60 L 324.40 645.70 L 324.00 645.40 L 323.30 641.60 L 323.20 637.00 L 323.60 632.50 L 324.40 628.10 L 325.70 623.70 L 327.30 619.50 L 330.10 613.70 L 330.50 610.10 L 329.30 606.70 L 323.30 599.50 L 319.10 593.80 L 315.60 588.00 L 312.60 582.00 L 310.20 575.90 L 308.40 569.60 L 307.10 563.10 L 307.20 562.10 L 308.00 561.60 L 310.00 561.30 L 311.40 562.00 L 315.70 572.00 L 319.70 580.10 L 323.90 587.10 L 328.10 593.10 L 362.40 636.40 L 362.30 638.10 L 360.60 639.80 L 359.90 639.80 L 339.70 620.80 L 338.70 620.10 L 338.00 620.00 L 337.30 620.40 L 336.70 621.30 Z" fill="#e95578" fill-rule="nonzero" group-id="9" node-id="76" stroke="none" target-height="84.400024" target-width="55.299988" target-x="307.1" target-y="561.3"></path></g><g node-id="162"><path d="M 701.20 705.60 L 697.40 704.20 L 693.60 703.60 L 689.70 703.50 L 685.60 704.20 L 681.40 705.50 L 676.90 707.60 L 672.10 710.60 L 656.30 721.70 L 652.30 723.40 L 648.40 724.50 L 644.30 725.20 L 640.20 725.30 L 634.70 725.00 L 629.20 724.00 L 623.70 722.40 L 618.40 720.30 L 613.20 717.80 L 608.20 714.90 L 603.30 711.70 L 594.80 705.00 L 593.30 704.20 L 591.70 704.30 L 590.90 704.70 L 589.80 706.00 L 588.50 713.20 L 588.20 714.30 L 587.50 715.20 L 586.50 715.60 L 583.70 715.20 L 580.50 713.10 L 578.80 711.30 L 581.70 695.10 L 585.00 679.00 L 588.70 663.00 L 592.80 647.10 L 597.40 631.30 L 602.30 615.60 L 607.60 600.10 L 613.30 584.60 L 614.80 581.10 L 618.70 574.70 L 621.20 571.90 L 623.90 569.40 L 626.90 567.30 L 630.20 565.60 L 633.80 564.50 L 637.70 564.00 L 641.80 564.00 L 645.40 564.60 L 648.70 565.60 L 651.80 567.10 L 654.50 569.10 L 657.10 571.60 L 659.40 574.70 L 661.50 578.40 L 666.90 589.70 L 671.80 601.10 L 676.40 612.70 L 680.60 624.50 L 685.80 640.50 L 690.40 656.50 L 694.50 672.80 L 698.10 689.10 L 701.20 705.60 Z" fill="#f3a29c" fill-rule="nonzero" group-id="10" node-id="81" stroke="none" target-height="161.29999" target-width="122.400024" target-x="578.8" target-y="564"></path></g><g node-id="163"><path d="M 974.10 627.80 L 973.20 626.80 L 970.80 625.80 L 968.20 626.10 L 939.20 647.70 L 937.70 647.90 L 937.00 647.60 L 935.90 646.60 L 935.50 645.10 L 936.30 641.20 L 943.00 629.50 L 955.70 609.00 L 962.60 599.00 L 972.40 586.40 L 977.60 580.60 L 983.00 575.10 L 988.70 570.10 L 994.40 565.70 L 995.40 565.20 L 997.40 565.30 L 999.00 566.50 L 1003.10 580.70 L 1003.40 582.70 L 1003.20 584.80 L 1002.40 586.70 L 1001.10 588.30 L 981.70 608.70 L 980.80 610.00 L 980.30 611.40 L 980.20 612.90 L 980.90 617.90 L 982.20 623.50 L 986.80 637.30 L 984.40 638.80 L 983.10 638.90 L 981.90 638.40 L 981.10 637.40 Z" fill="#e95578" fill-rule="nonzero" group-id="11" node-id="86" stroke="none" target-height="82.70001" target-width="67.900024" target-x="935.5" target-y="565.2"></path></g><g node-id="164"><path d="M 484.20 600.40 L 489.40 602.10 L 494.40 604.30 L 499.10 606.90 L 503.60 609.80 L 507.90 613.10 L 511.80 616.80 L 515.40 620.80 L 518.70 625.00 L 521.50 629.60 L 524.00 634.40 L 526.00 639.30 L 527.60 644.30 L 528.70 649.50 L 529.30 654.70 L 529.50 659.90 L 529.20 665.10 L 528.40 670.30 L 527.20 675.40 L 525.50 680.40 L 523.30 685.20 L 520.80 689.70 L 517.80 694.10 L 514.50 698.10 L 510.80 701.80 L 506.80 705.20 L 502.40 708.30 L 497.80 711.00 L 492.90 713.30 L 487.80 715.10 L 482.60 716.50 L 477.40 717.50 L 472.00 718.00 L 466.60 718.00 L 461.20 717.60 L 455.90 716.80 L 450.50 715.50 L 445.30 713.70 L 440.30 711.50 L 435.60 708.90 L 431.00 706.00 L 426.80 702.70 L 422.90 699.00 L 419.30 695.10 L 416.00 690.80 L 413.10 686.20 L 410.70 681.40 L 408.70 676.50 L 407.10 671.50 L 406.00 666.30 L 405.40 661.20 L 405.20 656.00 L 405.50 650.70 L 406.30 645.60 L 407.50 640.40 L 409.20 635.40 L 411.40 630.60 L 413.90 626.10 L 416.90 621.80 L 420.20 617.80 L 423.90 614.00 L 427.90 610.60 L 432.30 607.60 L 436.90 604.90 L 441.80 602.60 L 446.90 600.70 L 452.00 599.30 L 457.30 598.40 L 462.70 597.90 L 468.10 597.80 L 473.50 598.20 L 478.80 599.10 L 484.20 600.40 Z" fill="#f3a29c" fill-rule="nonzero" group-id="12" node-id="91" stroke="none" target-height="120.20001" target-width="124.29999" target-x="405.2" target-y="597.8"></path></g><g node-id="165"><path d="M 756.60 652.20 L 757.00 647.30 L 757.80 642.80 L 759.00 638.50 L 760.70 634.40 L 765.20 626.80 L 768.00 623.30 L 771.10 619.90 L 775.60 615.80 L 780.40 612.10 L 785.50 608.60 L 796.30 602.80 L 801.70 600.40 L 806.60 598.70 L 811.50 597.80 L 816.30 597.70 L 821.20 598.30 L 826.30 599.60 L 831.50 601.90 L 839.90 606.40 L 847.40 611.20 L 853.90 616.30 L 859.50 621.50 L 864.50 626.90 L 868.60 632.60 L 872.10 638.50 L 875.00 644.70 L 877.20 651.20 L 878.10 655.10 L 878.70 659.30 L 878.90 663.90 L 878.60 668.90 L 878.00 674.20 L 876.70 679.70 L 874.90 684.80 L 872.60 689.70 L 869.70 694.20 L 866.40 698.40 L 862.70 702.30 L 858.60 705.90 L 854.30 709.00 L 849.60 711.80 L 844.70 714.20 L 839.80 716.10 L 834.60 717.60 L 829.40 718.70 L 824.20 719.20 L 819.10 719.30 L 812.70 718.80 L 806.60 717.70 L 800.70 716.00 L 794.90 713.70 L 789.30 710.70 L 783.80 707.20 L 778.40 702.90 L 773.20 698.00 L 769.30 693.60 L 766.00 688.90 L 763.20 683.80 L 760.80 678.40 L 759.00 672.60 L 757.70 666.30 L 756.90 659.50 L 756.60 652.20 Z" fill="#f3a29c" fill-rule="nonzero" group-id="13" node-id="96" stroke="none" target-height="121.599976" target-width="122.30005" target-x="756.6" target-y="597.7"></path></g><g node-id="166"><path d="M 701.20 705.60 L 700.80 710.10 L 699.90 714.00 L 698.50 717.30 L 696.70 720.30 L 694.60 722.80 L 691.90 724.90 L 684.00 730.10 L 676.30 734.20 L 668.80 737.50 L 661.50 740.00 L 654.30 741.70 L 647.30 742.70 L 640.30 743.00 L 633.40 742.70 L 626.50 741.60 L 616.50 738.70 L 603.70 733.10 L 596.20 729.10 L 581.50 721.00 L 579.10 719.40 L 577.60 717.80 L 577.00 716.40 L 576.90 714.80 L 577.50 713.20 L 578.80 711.30 L 580.50 713.10 L 583.70 715.20 L 586.50 715.60 L 587.50 715.20 L 588.20 714.30 L 588.50 713.20 L 589.80 706.00 L 590.90 704.70 L 591.70 704.30 L 592.50 704.20 L 594.10 704.50 L 603.30 711.70 L 608.20 714.90 L 613.20 717.80 L 618.40 720.30 L 623.70 722.40 L 629.20 724.00 L 634.70 725.00 L 640.20 725.30 L 644.30 725.20 L 648.40 724.50 L 652.30 723.40 L 656.30 721.70 L 676.30 707.90 L 680.30 705.90 L 684.10 704.60 L 687.70 703.80 L 691.20 703.50 L 694.60 703.70 L 697.90 704.40 L 701.20 705.60 Z" fill="#e95578" fill-rule="nonzero" group-id="14" node-id="101" stroke="none" target-height="39.5" target-width="124.29999" target-x="576.9" target-y="703.5"></path></g><g node-id="167"><path d="M 545.20 801.40 L 549.90 808.50 L 554.80 815.30 L 559.90 821.60 L 565.20 827.60 L 570.70 833.20 L 576.60 838.60 L 582.70 843.50 L 588.80 847.90 L 595.20 851.90 L 601.70 855.50 L 608.50 858.60 L 615.30 861.30 L 622.30 863.40 L 629.30 865.10 L 636.60 866.30 L 643.80 866.90 L 651.10 867.00 L 658.50 866.50 L 666.00 865.40 L 673.70 863.80 L 681.10 861.60 L 688.50 858.80 L 696.10 855.30 L 703.70 851.10 L 711.60 846.20 L 717.70 841.50 L 723.70 836.10 L 729.50 829.70 L 735.20 822.40 L 740.70 814.10 L 746.00 804.60 L 754.10 788.10 L 757.10 783.40 L 760.30 779.80 L 763.60 777.00 L 767.30 774.70 L 768.90 774.10 L 769.50 774.20 L 769.60 774.80 L 769.00 776.40 L 764.30 783.70 L 762.30 787.40 L 752.00 812.50 L 747.40 822.80 L 742.50 832.70 L 735.00 845.40 L 730.80 851.50 L 726.20 857.30 L 721.10 862.80 L 715.50 868.20 L 709.00 873.40 L 702.30 878.00 L 695.60 881.80 L 688.70 885.10 L 681.50 887.80 L 674.20 889.90 L 666.90 891.50 L 659.50 892.40 L 652.10 892.80 L 644.70 892.70 L 637.30 892.00 L 629.90 890.80 L 622.60 889.00 L 615.50 886.80 L 608.50 884.10 L 601.60 880.80 L 595.00 877.10 L 588.70 872.90 L 582.50 868.20 L 576.60 863.10 L 571.10 857.60 L 566.00 851.60 L 561.20 845.20 L 556.70 838.30 L 548.20 823.20 L 540.20 807.80 L 530.10 787.10 L 527.10 782.50 L 522.30 776.10 L 521.90 774.90 L 522.00 774.30 L 522.50 773.90 L 523.70 773.70 L 526.10 774.00 L 528.60 775.50 L 530.10 777.20 L 545.20 801.40 Z" fill="#e95578" fill-rule="nonzero" group-id="15" node-id="106" stroke="none" target-height="119.099976" target-width="247.69995" target-x="521.9" target-y="773.7"></path></g><g node-id="168"><path d="M 751.10 794.00 L 746.00 804.70 L 740.70 814.20 L 735.20 822.50 L 729.50 829.80 L 723.70 836.10 L 717.70 841.60 L 711.60 846.30 L 703.70 851.20 L 696.00 855.40 L 688.50 858.90 L 681.00 861.70 L 673.70 863.80 L 666.00 865.50 L 658.50 866.50 L 651.10 867.00 L 643.80 866.90 L 636.50 866.30 L 629.30 865.10 L 622.30 863.40 L 615.30 861.30 L 608.40 858.60 L 601.70 855.50 L 595.20 851.90 L 588.80 847.90 L 582.60 843.50 L 576.60 838.60 L 570.70 833.20 L 565.20 827.60 L 559.90 821.60 L 554.80 815.30 L 549.90 808.50 L 545.20 801.40 L 563.30 803.80 L 569.30 804.40 L 575.30 804.60 L 610.40 802.20 L 639.50 800.60 L 668.50 799.60 L 697.60 799.20 L 726.70 799.30 L 731.20 798.90 L 738.90 797.40 L 751.10 794.00 Z" fill="#f9fbf9" fill-rule="nonzero" group-id="16" node-id="111" stroke="none" target-height="73" target-width="205.89996" target-x="545.2" target-y="794"></path></g><g node-id="169"><path d="M 479.30 926.80 L 500.80 945.50 L 513.10 955.70 L 519.40 960.40 L 530.60 967.40 L 541.80 973.70 L 553.20 979.30 L 564.80 984.20 L 576.50 988.40 L 588.40 991.90 L 600.50 994.80 L 612.80 997.00 L 625.40 998.50 L 638.20 999.30 L 651.30 999.40 L 664.70 998.90 L 675.50 997.80 L 685.90 996.30 L 696.00 994.40 L 705.70 992.00 L 715.30 989.10 L 724.80 985.80 L 733.90 982.20 L 742.90 978.10 L 754.70 972.10 L 766.20 965.50 L 777.60 958.30 L 788.70 950.60 L 799.70 942.30 L 810.70 933.60 L 808.90 941.30 L 808.00 947.20 L 807.70 951.70 L 807.90 955.10 L 808.50 957.60 L 804.80 963.30 L 801.50 969.30 L 792.70 989.20 L 790.30 994.00 L 784.70 1002.90 L 778.70 1011.30 L 772.40 1019.50 L 765.60 1027.40 L 758.50 1034.90 L 751.00 1042.10 L 743.10 1048.90 L 734.90 1055.30 L 726.40 1061.30 L 717.90 1066.50 L 709.40 1071.00 L 701.00 1074.80 L 692.50 1077.90 L 683.80 1080.50 L 675.10 1082.50 L 666.40 1083.80 L 657.80 1084.50 L 649.10 1084.70 L 640.50 1084.20 L 631.90 1083.30 L 623.50 1081.80 L 615.00 1079.70 L 606.70 1077.10 L 598.50 1074.10 L 590.40 1070.50 L 582.50 1066.50 L 574.70 1061.90 L 567.00 1056.80 L 559.70 1051.40 L 552.50 1045.60 L 545.60 1039.30 L 538.80 1032.60 L 532.30 1025.30 L 523.10 1014.30 L 514.30 1002.40 L 505.60 989.60 L 497.10 975.80 L 488.90 961.00 L 481.00 945.20 L 479.60 939.80 L 478.90 935.00 L 478.80 930.70 L 479.30 926.80 Z" fill="#e95578" fill-rule="nonzero" group-id="17" node-id="116" stroke="none" target-height="157.89996" target-width="331.90002" target-x="478.8" target-y="926.8"></path></g><g node-id="170"><path d="M 480.90 945.20 L 488.90 961.00 L 497.10 975.80 L 505.50 989.50 L 514.20 1002.40 L 523.10 1014.30 L 532.20 1025.30 L 538.80 1032.50 L 545.50 1039.30 L 552.50 1045.60 L 559.60 1051.40 L 567.00 1056.80 L 574.70 1061.90 L 582.50 1066.40 L 590.40 1070.50 L 598.40 1074.10 L 606.60 1077.10 L 615.00 1079.70 L 623.40 1081.80 L 631.90 1083.30 L 640.40 1084.20 L 649.10 1084.70 L 657.70 1084.50 L 666.30 1083.80 L 675.00 1082.50 L 683.70 1080.50 L 692.50 1077.90 L 700.90 1074.80 L 709.40 1071.00 L 717.80 1066.50 L 726.30 1061.30 L 734.90 1055.30 L 743.10 1048.90 L 750.90 1042.10 L 758.40 1034.90 L 765.60 1027.40 L 772.30 1019.50 L 778.70 1011.30 L 784.70 1002.80 L 790.20 994.00 L 792.70 989.20 L 801.50 969.30 L 804.80 963.30 L 808.50 957.50 L 809.90 1020.10 L 810.50 1020.10 L 808.40 1021.40 L 808.20 1022.30 L 812.20 1111.10 L 810.30 1114.20 L 809.00 1117.20 L 808.30 1120.00 L 808.00 1122.80 L 808.20 1125.50 L 801.00 1134.70 L 739.70 1196.10 L 682.20 1253.00 L 676.30 1259.20 L 671.40 1265.10 L 667.60 1270.70 L 664.60 1276.10 L 662.40 1281.20 L 660.80 1286.20 L 660.10 1284.60 L 659.40 1284.00 L 658.60 1284.00 L 657.60 1284.70 L 656.20 1286.70 L 654.30 1290.80 L 651.50 1298.10 L 647.50 1303.40 L 645.10 1305.90 L 643.90 1306.80 L 643.30 1306.80 L 638.80 1303.00 L 635.00 1299.00 L 632.00 1295.10 L 629.60 1291.10 L 627.30 1285.90 L 626.40 1285.00 L 625.20 1284.50 L 624.50 1284.60 L 624.00 1285.20 L 623.60 1291.70 L 622.20 1283.50 L 621.00 1279.50 L 616.70 1270.40 L 613.70 1265.40 L 610.20 1260.50 L 604.50 1253.60 L 598.50 1247.00 L 512.90 1162.40 L 488.70 1137.90 L 457.20 1104.60 L 441.50 1087.20 L 441.50 1086.30 L 442.90 1085.00 L 476.20 1115.30 L 477.00 1115.70 L 477.90 1115.60 L 478.60 1115.00 L 478.90 1114.20 L 481.90 1012.60 Z" fill="#f7c2bb" fill-rule="nonzero" group-id="18" node-id="121" stroke="none" target-height="361.60004" target-width="370.7" target-x="441.5" target-y="945.2"></path></g><g node-id="171"><path d="M 481.90 1012.60 L 478.90 1114.20 L 478.60 1115.00 L 477.90 1115.60 L 477.00 1115.70 L 476.20 1115.30 L 442.90 1085.00 L 441.60 1086.30 L 441.60 1087.20 L 457.20 1104.50 L 488.80 1137.80 L 513.00 1162.40 L 598.50 1246.90 L 604.60 1253.50 L 610.30 1260.50 L 613.70 1265.40 L 616.80 1270.40 L 619.40 1275.50 L 621.00 1279.40 L 623.20 1287.50 L 624.20 1299.40 L 624.30 1309.00 L 624.10 1319.00 L 623.30 1329.90 L 622.00 1340.90 L 620.10 1352.00 L 618.50 1359.30 L 614.20 1373.00 L 611.50 1379.60 L 608.40 1385.50 L 605.00 1390.80 L 602.10 1394.60 L 598.90 1397.80 L 595.60 1400.70 L 592.00 1403.00 L 590.10 1403.90 L 588.10 1404.40 L 584.10 1404.30 L 580.30 1402.60 L 558.80 1387.80 L 537.20 1372.20 L 515.70 1355.70 L 494.10 1338.30 L 472.40 1319.90 L 450.80 1300.60 L 431.80 1283.10 L 419.30 1271.00 L 411.70 1262.90 L 407.60 1257.90 L 404.00 1252.70 L 400.80 1247.00 L 398.00 1240.70 L 393.40 1227.50 L 390.10 1213.20 L 387.90 1198.40 L 387.00 1187.10 L 386.50 1176.10 L 386.40 1165.20 L 387.30 1145.10 L 389.00 1129.50 L 391.50 1116.80 L 393.20 1111.10 L 395.90 1103.60 L 399.10 1096.50 L 402.80 1089.70 L 407.00 1083.30 L 411.70 1076.90 L 416.90 1070.70 L 422.50 1064.80 L 435.60 1052.50 L 457.20 1033.60 L 481.90 1012.60 Z" fill="#f9fbf9" fill-rule="nonzero" group-id="19" node-id="126" stroke="none" target-height="391.80005" target-width="237.9" target-x="386.4" target-y="1012.6"></path></g><g node-id="172"><path d="M 809.90 1020.10 L 836.30 1045.20 L 856.20 1065.30 L 862.80 1072.50 L 868.60 1080.00 L 873.80 1087.70 L 878.40 1095.70 L 882.30 1104.00 L 885.60 1112.60 L 888.30 1121.50 L 890.30 1130.90 L 891.80 1140.60 L 893.00 1154.10 L 893.60 1167.60 L 893.80 1181.20 L 893.40 1194.70 L 892.50 1208.20 L 891.00 1221.70 L 889.90 1228.50 L 888.30 1235.00 L 886.20 1241.20 L 883.70 1247.20 L 880.90 1253.00 L 874.10 1264.00 L 864.70 1275.90 L 858.80 1282.40 L 852.60 1288.60 L 842.80 1297.60 L 804.30 1329.80 L 764.60 1361.60 L 711.40 1403.10 L 708.90 1404.80 L 704.30 1406.70 L 702.20 1407.10 L 699.30 1407.00 L 696.50 1406.40 L 693.90 1405.30 L 691.40 1403.70 L 686.70 1399.40 L 683.60 1395.40 L 680.80 1391.10 L 678.30 1386.50 L 676.20 1382.00 L 673.20 1373.90 L 669.40 1360.20 L 666.30 1346.20 L 663.90 1331.80 L 662.20 1317.00 L 661.10 1301.80 L 660.80 1286.10 L 662.30 1281.10 L 664.60 1276.00 L 667.50 1270.70 L 671.40 1265.00 L 676.20 1259.10 L 682.20 1252.90 L 739.70 1196.10 L 801.00 1134.70 L 832.90 1094.30 L 832.80 1094.00 L 831.50 1093.10 L 830.60 1093.30 L 826.30 1098.60 L 822.00 1103.10 L 817.30 1107.30 L 812.20 1111.10 L 808.20 1022.40 L 808.40 1021.50 L 810.40 1020.30 L 809.90 1020.10 Z" fill="#f9fbf9" fill-rule="nonzero" group-id="20" node-id="131" stroke="none" target-height="387" target-width="233" target-x="660.8" target-y="1020.1"></path></g><g node-id="173"><path d="M 808.20 1125.60 L 808.00 1122.80 L 808.30 1120.00 L 809.10 1117.20 L 810.40 1114.20 L 812.20 1111.10 L 817.30 1107.30 L 822.00 1103.10 L 826.30 1098.60 L 830.50 1093.30 L 831.40 1093.10 L 832.80 1094.00 L 832.90 1094.30 Z" fill="#ef8988" fill-rule="nonzero" group-id="21" node-id="136" stroke="none" target-height="32.5" target-width="24.900024" target-x="808" target-y="1093.1"></path></g><g node-id="174"><path d="M 388.10 1136.50 L 386.70 1155.00 L 386.40 1176.10 L 386.90 1187.10 L 388.80 1205.90 L 391.50 1220.40 L 395.50 1234.30 L 397.90 1240.70 L 400.80 1247.00 L 404.00 1252.70 L 407.50 1257.90 L 411.70 1262.90 L 419.30 1271.00 L 431.80 1283.10 L 450.70 1300.60 L 472.40 1319.90 L 494.00 1338.20 L 515.60 1355.60 L 537.20 1372.20 L 558.80 1387.80 L 580.30 1402.60 L 584.10 1404.30 L 588.10 1404.40 L 590.10 1403.90 L 592.00 1403.00 L 595.50 1400.70 L 598.90 1397.80 L 602.00 1394.60 L 605.00 1390.80 L 608.30 1385.50 L 611.40 1379.60 L 614.10 1373.00 L 618.40 1359.30 L 620.10 1352.00 L 622.00 1340.90 L 623.30 1329.90 L 624.00 1319.00 L 624.30 1309.00 L 623.60 1291.60 L 624.00 1285.10 L 624.50 1284.60 L 625.20 1284.50 L 626.40 1285.00 L 627.30 1285.80 L 629.60 1291.00 L 632.00 1295.10 L 635.00 1299.00 L 638.80 1302.90 L 643.30 1306.80 L 637.20 1336.80 L 629.50 1377.10 L 627.60 1384.30 L 625.70 1390.20 L 623.60 1394.90 L 621.60 1398.60 L 618.40 1403.10 L 615.00 1406.60 L 611.60 1409.30 L 607.90 1411.30 L 604.10 1412.60 L 600.10 1413.20 L 595.70 1413.10 L 591.00 1412.20 L 585.70 1410.60 L 579.90 1407.90 L 564.20 1399.50 L 547.70 1389.90 L 530.30 1379.20 L 511.90 1367.30 L 492.60 1354.10 L 406.40 1294.80 L 401.00 1290.30 L 396.20 1285.60 L 392.90 1281.80 L 387.30 1273.60 L 385.00 1269.20 L 383.10 1264.70 L 381.40 1259.80 L 380.10 1254.50 L 379.20 1248.90 L 377.70 1235.90 L 376.80 1223.00 L 376.50 1210.10 L 376.80 1197.10 L 378.70 1164.60 L 381.20 1132.10 L 381.80 1130.50 L 382.70 1129.50 L 383.80 1129.00 L 386.30 1129.20 L 387.20 1129.80 L 387.80 1130.80 L 387.90 1131.80 Z" fill="#e95578" fill-rule="nonzero" group-id="22" node-id="141" stroke="none" target-height="284.19995" target-width="266.8" target-x="376.5" target-y="1129"></path></g><g node-id="175"><path d="M 381.20 1132.10 L 378.70 1164.50 L 376.80 1197.10 L 376.60 1210.00 L 376.90 1223.00 L 377.70 1235.90 L 379.20 1248.80 L 380.20 1254.50 L 381.50 1259.70 L 383.10 1264.60 L 385.10 1269.20 L 387.40 1273.60 L 393.00 1281.80 L 396.30 1285.50 L 401.00 1290.20 L 406.40 1294.70 L 412.50 1299.10 L 512.00 1367.30 L 530.40 1379.20 L 547.80 1389.90 L 564.30 1399.40 L 580.00 1407.90 L 585.80 1410.50 L 591.00 1412.20 L 595.80 1413.00 L 600.10 1413.10 L 604.20 1412.50 L 608.00 1411.20 L 611.60 1409.30 L 615.10 1406.60 L 618.40 1403.00 L 621.60 1398.60 L 623.70 1394.80 L 625.70 1390.10 L 627.70 1384.30 L 629.60 1377.10 L 637.20 1336.70 L 643.40 1306.70 L 644.00 1306.70 L 645.20 1305.80 L 647.50 1303.30 L 651.60 1298.00 L 652.10 1312.60 L 653.10 1327.00 L 654.70 1341.40 L 656.90 1355.70 L 659.60 1370.00 L 661.10 1375.70 L 663.20 1382.00 L 665.80 1388.10 L 669.00 1394.10 L 671.50 1397.90 L 677.10 1404.60 L 680.40 1407.50 L 683.80 1409.80 L 687.40 1411.60 L 690.30 1412.60 L 693.30 1413.20 L 699.80 1413.30 L 706.70 1411.50 L 710.30 1409.90 L 715.70 1407.00 L 721.10 1403.50 L 740.80 1388.50 L 751.40 1380.90 L 772.90 1366.60 L 782.90 1359.10 L 792.50 1351.20 L 805.70 1339.30 L 810.10 1336.20 L 812.00 1335.30 L 815.20 1334.50 L 816.00 1333.90 L 816.60 1333.00 L 817.10 1331.50 L 817.30 1331.10 L 819.30 1330.50 L 820.20 1329.80 L 821.10 1327.30 L 821.90 1326.50 L 834.20 1320.10 L 842.00 1315.10 L 862.00 1298.30 L 869.90 1291.10 L 877.30 1283.50 L 881.90 1278.20 L 886.00 1272.70 L 889.70 1266.90 L 892.10 1262.40 L 894.20 1257.70 L 895.90 1252.70 L 900.50 1232.60 L 901.90 1222.60 L 902.00 1217.60 L 901.30 1192.00 L 900.10 1166.30 L 898.50 1140.80 L 901.80 1141.10 L 905.00 1142.00 L 930.60 1152.30 L 955.90 1163.00 L 981.00 1174.20 L 1005.90 1185.80 L 1030.70 1197.80 L 1055.20 1210.20 L 1079.50 1223.10 L 1103.60 1236.30 L 1127.50 1249.90 L 1151.20 1264.00 L 1162.00 1270.90 L 1173.10 1278.90 L 1184.60 1287.90 L 1196.50 1298.10 L 1208.80 1309.50 L 1216.90 1323.20 L 1224.30 1337.10 L 1231.00 1351.20 L 1236.90 1365.50 L 1242.20 1380.00 L 1246.70 1394.80 L 1250.50 1409.80 L 1253.70 1425.10 L 1256.10 1440.60 L 1257.90 1456.50 L 1258.90 1472.70 L 1259.20 1489.20 L 1259.00 1490.40 L 1257.90 1492.30 L 1256.00 1493.40 L 1254.80 1493.60 L 5.30 1493.70 L 2.60 1493.00 L 1.40 1492.10 L 0.60 1490.90 L -0.00 1488.20 L 1.60 1465.40 L 4.40 1443.80 L 6.30 1433.00 L 11.20 1411.40 L 14.10 1400.20 L 23.60 1368.30 L 28.50 1350.00 L 33.60 1342.80 L 40.80 1331.70 L 54.30 1309.90 L 58.40 1304.60 L 63.10 1299.50 L 73.40 1290.20 L 79.20 1285.70 L 88.30 1279.30 L 97.90 1273.00 L 117.90 1260.40 L 136.20 1249.30 L 154.90 1238.80 L 191.10 1219.50 L 227.60 1200.80 L 264.40 1182.80 L 301.50 1165.30 L 338.90 1148.30 L 376.60 1132.00 L 378.90 1131.80 L 381.20 1132.10 Z" fill="#eb686d" fill-rule="nonzero" group-id="23" node-id="146" stroke="none" target-height="361.8999" target-width="1259.2" target-x="-0" target-y="1131.8"></path></g><path d="M 898.50 1140.80 L 900.10 1166.30 L 901.30 1192.00 L 902.00 1217.70 L 901.30 1227.60 L 897.20 1247.50 L 895.80 1252.70 L 894.10 1257.70 L 892.10 1262.40 L 889.60 1266.90 L 885.90 1272.70 L 881.80 1278.20 L 877.20 1283.50 L 869.80 1291.10 L 861.90 1298.30 L 842.00 1315.10 L 834.20 1320.10 L 821.90 1326.50 L 821.00 1327.30 L 820.60 1329.20 L 820.10 1329.90 L 817.30 1331.10 L 816.60 1333.00 L 816.00 1333.90 L 815.10 1334.50 L 812.00 1335.30 L 810.10 1336.30 L 805.70 1339.30 L 792.50 1351.20 L 782.90 1359.10 L 772.90 1366.60 L 751.30 1381.00 L 740.80 1388.50 L 721.00 1403.50 L 715.60 1407.00 L 710.30 1409.90 L 706.70 1411.50 L 699.80 1413.30 L 693.30 1413.20 L 687.40 1411.60 L 683.70 1409.80 L 680.30 1407.50 L 677.10 1404.60 L 671.50 1397.90 L 669.00 1394.10 L 665.80 1388.10 L 663.20 1382.00 L 661.10 1375.70 L 659.60 1370.00 L 656.90 1355.80 L 654.70 1341.40 L 653.10 1327.00 L 652.00 1312.60 L 651.50 1298.00 L 654.30 1290.70 L 656.30 1286.60 L 657.70 1284.60 L 658.60 1283.90 L 659.40 1283.90 L 660.10 1284.50 L 660.90 1286.10 L 661.20 1301.80 L 662.20 1317.00 L 663.90 1331.90 L 666.40 1346.30 L 669.50 1360.30 L 673.30 1373.90 L 676.20 1382.00 L 680.80 1391.10 L 683.60 1395.50 L 686.70 1399.40 L 691.40 1403.70 L 693.90 1405.30 L 696.60 1406.40 L 699.30 1407.00 L 702.20 1407.10 L 704.30 1406.70 L 708.90 1404.80 L 711.40 1403.10 L 764.60 1361.60 L 804.30 1329.80 L 832.90 1306.20 L 842.80 1297.60 L 852.60 1288.60 L 858.80 1282.40 L 864.70 1275.90 L 874.10 1264.00 L 880.90 1253.00 L 883.80 1247.20 L 886.30 1241.30 L 888.30 1235.10 L 889.90 1228.60 L 891.10 1221.70 L 892.50 1208.20 L 893.40 1194.70 L 893.80 1181.20 L 893.60 1167.60 L 891.80 1139.20 L 892.60 1136.70 L 893.30 1136.20 L 894.10 1136.20 L 896.50 1137.90 L 898.50 1140.80 Z" fill="#e95578" fill-rule="nonzero" group-id="24" node-id="151" stroke="none" target-height="277.1001" target-width="250.5" target-x="651.5" target-y="1136.2"></path></svg>