<?xml version="1.0" standalone="no"?><!DOCTYPE svg PUBLIC "-//W3C//DTD SVG 1.1//EN" "http://www.w3.org/Graphics/SVG/1.1/DTD/svg11.dtd"><svg t="1723297396723" class="icon" viewBox="0 0 1024 1024" version="1.1" xmlns="http://www.w3.org/2000/svg" p-id="7616" xmlns:xlink="http://www.w3.org/1999/xlink" width="200" height="200"><path d="M178.66897 427.270525c0 13.087501-10.614107 23.695612-23.701608 23.695611-13.078507 0-23.700608-10.60911-23.700608-23.695611V89.629793c0-13.086501 10.622102-23.700608 23.700608-23.700608 13.087501 0 23.701608 10.614107 23.701608 23.700608v337.640732z" fill="#409eff" p-id="7617"></path><path d="M272.062319 1024H37.873404c-20.845463 0-37.804449-17.588578-37.804449-39.206539V39.20454c0-21.617961 16.958987-39.205539 37.804449-39.205539h234.188915c20.845463 0 37.805449 17.587578 37.805449 39.205539v945.588921c0 21.617961-16.958987 39.206539-37.805449 39.206539z m-232.019323-39.97404h229.850731V39.972042h-229.850731V984.02596z" fill="#409eff" p-id="7618"></path><path d="M226.687786 758.994099c0 11.074808-8.978169 20.052977-20.052978 20.052977h-103.332894c-11.075807 0-20.052977-8.978169-20.052977-20.052977 0-11.074808 8.978169-20.052977 20.052977-20.052978h103.332894c11.075807 0 20.052977 8.978169 20.052978 20.052978zM226.687786 826.4373c0 11.074808-8.978169 20.052977-20.052978 20.052977h-103.332894c-11.075807 0-20.052977-8.978169-20.052977-20.052977 0-11.074808 8.978169-20.052977 20.052977-20.052977h103.332894c11.075807-0.000999 20.052977 8.978169 20.052978 20.052977z" fill="#409eff" p-id="7619"></path><path d="M893.00507 427.270525c0 13.087501-10.614107 23.695612-23.701608 23.695611-13.078507 0-23.700608-10.60911-23.700608-23.695611V89.629793c0-13.086501 10.622102-23.700608 23.700608-23.700608 13.087501 0 23.701608 10.614107 23.701608 23.700608v337.640732z" fill="#409eff" p-id="7620"></path><path d="M986.398419 1024H752.208505c-20.844463 0-37.80345-17.588578-37.80345-39.206539V39.20454c0-21.617961 16.958987-39.205539 37.80345-39.205539h234.189914c20.845463 0 37.805449 17.587578 37.805449 39.205539v945.588921c0 21.617961-16.959986 39.206539-37.805449 39.206539z m-232.019323-39.97404h229.850731V39.972042h-229.850731V984.02596z" fill="#409eff" p-id="7621"></path><path d="M941.023886 758.994099c0 11.074808-8.97717 20.052977-20.052977 20.052977h-103.332895c-11.074808 0-20.052977-8.978169-20.052977-20.052977 0-11.074808 8.978169-20.052977 20.052977-20.052978h103.332895c11.074808 0 20.052977 8.978169 20.052977 20.052978zM941.023886 826.4373c0 11.074808-8.97717 20.052977-20.052977 20.052977h-103.332895c-11.074808 0-20.052977-8.978169-20.052977-20.052977 0-11.074808 8.978169-20.052977 20.052977-20.052977h103.332895c11.074808-0.000999 20.052977 8.978169 20.052977 20.052977z" fill="#409eff" p-id="7622"></path><path d="M535.838019 427.270525c0 13.087501-10.614107 23.695612-23.701608 23.695611-13.078507 0-23.700608-10.60911-23.700608-23.695611V89.629793c0-13.086501 10.622102-23.700608 23.700608-23.700608 13.087501 0 23.701608 10.614107 23.701608 23.700608v337.640732z" fill="#409eff" p-id="7623"></path><path d="M629.230369 1024H395.040455c-20.844463 0-37.80345-17.588578-37.80345-39.206539V39.20454c0-21.617961 16.958987-39.205539 37.80345-39.205539h234.188915c20.845463 0 37.805449 17.587578 37.805448 39.205539v945.588921c0.000999 21.617961-16.958987 39.206539-37.804449 39.206539z m-232.019323-39.97404h229.850731V39.972042h-229.850731V984.02596z" fill="#409eff" p-id="7624"></path><path d="M583.854836 758.994099c0 11.074808-8.976171 20.052977-20.052977 20.052977h-103.332894c-11.074808 0-20.052977-8.978169-20.052977-20.052977 0-11.074808 8.978169-20.052977 20.052977-20.052978h103.332894c11.076807 0 20.052977 8.978169 20.052977 20.052978zM583.854836 826.4373c0 11.074808-8.976171 20.052977-20.052977 20.052977h-103.332894c-11.074808 0-20.052977-8.978169-20.052977-20.052977 0-11.074808 8.978169-20.052977 20.052977-20.052977h103.332894c11.076807-0.000999 20.052977 8.978169 20.052977 20.052977z" fill="#409eff" p-id="7625"></path></svg>